<svg width="140" height="54" viewBox="0 0 140 54" fill="none" xmlns="http://www.w3.org/2000/svg">
<g clip-path="url(#clip0_13_12236)">
<path d="M127.283 24.8412L124.735 27.4235L137.456 40.3144L140.005 37.7321L127.283 24.8412Z" fill="#1F252D"/>
<path d="M137.451 9.37054L124.73 22.2614L127.278 24.8437L140 11.9528L137.451 9.37054Z" fill="#1F252D"/>
<path d="M112.011 9.36537L109.463 11.9476L122.184 24.8385L124.733 22.2563L112.011 9.36537Z" fill="#1F252D"/>
<path d="M122.182 24.8431L109.461 37.734L112.009 40.3163L124.73 27.4254L122.182 24.8431Z" fill="#1F252D"/>
<path d="M21.2933 24.8405L18.745 22.2582L16.1966 24.8405L18.745 27.4227L21.2933 24.8405Z" fill="#1F252D"/>
<path d="M16.5199 0L0 39.202H4.02475L9.67166 26.0104L11.1345 22.462L18.7182 4.451L26.1425 22.462L27.6584 26.0104L33.2522 39.202H37.4853L20.8592 0H16.5199Z" fill="#1F252D"/>
<path d="M56.3056 9.48168C54.1179 9.44529 51.9555 9.95961 50.0122 10.9785C48.0689 11.9974 46.4055 13.4891 45.1712 15.3197H45.0649V10.2228H41.3875V49.3751H45.0649V34.1175H45.1712C46.4184 35.9306 48.086 37.4056 50.0275 38.4127C51.9689 39.4198 54.1248 39.9283 56.3056 39.8934C65.0906 39.8934 71.6773 33.1652 71.6773 24.6358C71.6773 16.2099 64.968 9.48168 56.3056 9.48168ZM56.3056 36.5562C49.8252 36.5562 44.8647 31.2026 44.8647 24.7393C44.8647 18.1146 50.0908 12.8189 56.2607 12.8189C63.207 12.8189 68.0244 18.1187 68.0244 24.7931C68.0244 31.4676 63.1007 36.5562 56.3056 36.5562Z" fill="#1F252D"/>
<path d="M105.555 24.9505C105.555 16.9511 99.1233 9.48167 90.5507 9.48167C82.5503 9.48167 75.7021 16.3176 75.7021 24.7393C75.6871 28.3142 76.9257 31.7782 79.1969 34.5138C81.468 37.2493 84.6242 39.0786 88.1026 39.6753C91.581 40.272 95.1555 39.5975 98.1888 37.7719C101.222 35.9464 103.517 33.0885 104.664 29.7079H100.794C99.2295 33.9477 94.9923 36.5438 90.5507 36.5438C84.9896 36.5562 79.7799 31.8402 79.4653 26.085H105.502C105.502 25.6957 105.555 25.3231 105.555 24.9505ZM79.4653 22.727C80.4582 16.7399 85.2185 12.8355 90.5507 12.8355C96.1936 12.8355 100.745 16.918 101.791 22.7436L79.4653 22.727Z" fill="#1F252D"/>
</g>
<defs>
<clipPath id="clip0_13_12236">
<rect width="140" height="54" fill="white"/>
</clipPath>
</defs>
</svg>
