<svg width="80" height="80" viewBox="0 0 80 80" fill="none" xmlns="http://www.w3.org/2000/svg">
<rect x="1" y="1" width="78" height="78" rx="39" fill="#D0F6FD"/>
<rect x="1" y="1" width="78" height="78" rx="39" stroke="#0D84AD" stroke-width="2" stroke-linecap="round" stroke-dasharray="4 12 12 16"/>
<path d="M38.8571 18.4286C33.7143 18.7143 28.8571 20.8095 25.1429 24.3333L27.8095 26.6667C30.8571 23.8571 34.7619 22.1905 38.8571 21.9524V18.4286ZM41.2381 18.4286V21.9524C50.2857 22.5238 57.5238 29.7619 58.0952 38.8095H61.619C61 27.8571 52.1905 19.0476 41.2381 18.4286ZM23.4762 26.0952C21.7143 28.1905 20.381 30.5714 19.5238 33.1429C19.6667 33.0476 19.8095 33 19.9524 33H20.1905H21.6667C22.3333 32.9524 22.9048 33.4286 22.9524 34.0952C23 34.7619 22.5238 35.3333 21.8571 35.381H21.619H20.1429C19.6667 35.381 19.2857 35.0952 19.0476 34.7143C18.9048 35.1905 18.8095 35.6667 18.7143 36.1429C18.8571 36.0476 19 36 19.1429 35.9524H19.381H20.8571C21.5238 35.9048 22.0952 36.381 22.1429 37.0476C22.1905 37.7143 21.7143 38.2857 21.0476 38.3333H20.8571H19.4286C19.0952 38.3333 18.7619 38.1905 18.5238 37.9048C18.4762 38.4286 18.4286 38.9524 18.4286 39.4286C18.619 39.1429 18.9048 38.9524 19.2381 38.9048H19.4286H20.9048C21.3333 38.9048 21.7143 39.1429 21.9524 39.4762C22.0476 37 22.619 34.5714 23.6667 32.2857C23.5714 32.3333 23.4286 32.381 23.3333 32.381H23.0952H21.619C20.9524 32.4286 20.381 31.9524 20.3333 31.2857C20.2857 30.619 20.7619 30.0476 21.4286 30H21.6667H23.1429C23.7619 30 24.2381 30.4762 24.3333 31.0476C24.8571 30.0952 25.4762 29.2381 26.1905 28.3809L23.4762 26.0952ZM48.0952 38.8571C48.7619 38.8095 49.3333 39.2857 49.381 39.9524C49.4286 40.619 48.9524 41.1905 48.2857 41.2381H48.0952H46.619C45.9524 41.2857 45.381 40.8095 45.3333 40.1429C45.2857 39.4762 45.7619 38.9048 46.4286 38.8571H46.619H48.0952ZM33.381 38.8571C34.0476 38.8095 34.619 39.2857 34.6667 39.9524C34.7143 40.619 34.2381 41.1905 33.5714 41.2381H33.381H31.9048C31.2381 41.2857 30.6667 40.8095 30.619 40.1429C30.5714 39.4762 31.0476 38.9048 31.7143 38.8571H31.9048H33.381ZM40 30.7619C40.5714 30.7619 41.0476 31.1905 41.1905 31.7619V31.9524V33.1429C42.9524 33.6667 44.1429 35.2857 44.1429 37.0952C44.1905 37.7619 43.7143 38.3333 43.0476 38.3809C42.381 38.4286 41.8095 37.9524 41.7619 37.2857V37.0952C41.7619 36.1429 41 35.3333 40 35.3333C39 35.3333 38.2381 36.0952 38.2381 37.0952C38.2381 37.2857 38.5714 37.7619 39.2381 38.1905C39.5714 38.4286 39.9048 38.6667 40.2857 38.8571L40.4762 38.9524C41.0476 39.2381 41.619 39.5714 42.1429 39.9524C43.3333 40.8095 44.0952 41.8095 44.0952 43C44.0952 44.8095 42.9048 46.4286 41.1429 46.9524V48.1429C41.1905 48.8095 40.7143 49.3809 40.0476 49.4286C39.381 49.4762 38.8095 49 38.7619 48.3333V48.1429V46.9524C37 46.4286 35.8095 44.8095 35.8095 43C35.7619 42.3333 36.2381 41.7619 36.9048 41.7143C37.5714 41.6667 38.1429 42.1429 38.1905 42.8095V43C38.1905 43.9524 38.9524 44.7619 39.9524 44.7619C40.9524 44.7619 41.7143 44 41.7143 43C41.7143 42.7619 41.3809 42.3333 40.7143 41.9048C40.3809 41.6667 40.0476 41.4286 39.6667 41.2381L39.4762 41.1429C38.9048 40.8571 38.3333 40.5238 37.8095 40.1429C36.619 39.2381 35.8571 38.2857 35.8571 37.0952C35.8571 35.2857 37.0476 33.6667 38.8095 33.1429V31.9524C38.8095 31.2857 39.3333 30.7619 40 30.7619ZM40 28.7143C33.7619 28.7143 28.6667 33.7619 28.6667 40.0476C28.6667 46.2857 33.7143 51.381 40 51.381C46.2381 51.381 51.3333 46.3333 51.3333 40.0476C51.3333 33.7619 46.2857 28.7143 40 28.7143ZM40 26.3333C47.5714 26.3333 53.7143 32.4762 53.7143 40.0476C53.7143 47.619 47.5714 53.7619 40 53.7619C32.4286 53.7619 26.2857 47.619 26.2857 40.0476C26.3333 32.4762 32.4762 26.3333 40 26.3333ZM61.5714 41.2381H58.0476C57.8095 45.1905 56.2381 49 53.619 52L56.0952 54.4762C59.3809 50.8095 61.3333 46.1429 61.5714 41.2381ZM21.9048 40.619L21.8571 40.7143C21.6667 40.9524 21.4286 41.1429 21.0952 41.1905H20.9048H19.4286C19 41.1905 18.619 41 18.4286 40.6667C18.4286 41.1905 18.4762 41.7143 18.5238 42.1905C18.7143 42 18.9524 41.8571 19.2381 41.8095H19.4286H20.9048C21.5714 41.7619 22.1429 42.2381 22.1905 42.9048C22.2381 43.5714 21.7619 44.1429 21.0952 44.1905H20.9048H19.4286C19.1905 44.1905 18.9524 44.1429 18.7619 44C18.8571 44.4762 18.9524 44.9524 19.0952 45.4286C19.2381 45.0952 19.5714 44.8095 19.9524 44.7619H20.1905H21.6667C22.3333 44.7143 22.9048 45.1905 22.9524 45.8571C23 46.5238 22.5238 47.0952 21.8571 47.1429H21.619H20.1429C19.9048 47.1429 19.7143 47.0952 19.5238 46.9524C20.4762 49.7143 21.9524 52.2857 23.9524 54.4762L26.4762 52.0476C25.619 51.0952 24.9048 50.0952 24.2857 49V48.8571C24.2857 49.4286 23.9048 49.9048 23.3333 50.0476H23.0952H21.619C20.9524 50.0952 20.381 49.619 20.3333 48.9524C20.2857 48.2857 20.7619 47.7143 21.4286 47.6667H21.6667H23.1429C23.3333 47.6667 23.5238 47.7143 23.7143 47.8095C22.5714 45.5714 22 43.0952 21.9048 40.619ZM40 24.2857C31.3333 24.2857 24.2857 31.3333 24.2857 40C24.2857 48.6667 31.3333 55.7143 40 55.7143C48.6667 55.7143 55.7143 48.6667 55.7143 40C55.7143 31.3333 48.7143 24.2857 40 24.2857ZM51.9524 53.619C45.1429 59.5714 35 59.619 28.1905 53.7143L25.619 56.1429C33.8095 63.4762 46.2381 63.4762 54.4286 56.0952L51.9524 53.619ZM40 16C53.2381 16 64 26.7619 64 40C64 53.2381 53.2857 64 40 64C26.7143 64 16 53.2381 16 40C16.0476 26.7619 26.7619 16.0476 40 16Z" fill="#184861"/>
</svg>
