<svg width="80" height="80" viewBox="0 0 80 80" fill="none" xmlns="http://www.w3.org/2000/svg">
<rect x="1" y="1" width="78" height="78" rx="39" fill="#F4FEC9"/>
<rect x="1" y="1" width="78" height="78" rx="39" stroke="#7DA907" stroke-width="2" stroke-linecap="round" stroke-dasharray="6 8"/>
<path d="M60.7236 32.3579C61.1492 32.7835 61.1965 33.3983 60.8654 33.8712L60.7236 34.0131L59.2575 35.4792C58.7845 35.9521 58.0278 35.9521 57.6022 35.4792C57.2239 35.0536 57.1293 34.4388 57.4603 33.9658L57.6022 33.824L59.0683 32.3579C59.4939 31.8849 60.2506 31.8849 60.7236 32.3579ZM20.7609 32.216L20.9028 32.3579L22.3689 33.824C22.8418 34.2969 22.8418 35.0063 22.3689 35.4792C21.9432 35.9048 21.3284 35.9521 20.8555 35.6211L20.7136 35.4792L19.2475 34.0131C18.7746 33.5402 18.7746 32.8308 19.2475 32.3579C19.6259 31.9322 20.288 31.8849 20.7609 32.216ZM46.8667 30.6553H38.2593L34.0975 34.8171L33.9557 35.0536C33.8611 35.1482 33.8138 35.29 33.7665 35.4319C33.7665 35.9521 34.1448 36.3305 34.6178 36.4251H34.8069H34.8542C34.9488 36.3778 35.0434 36.3305 35.1853 36.2832L35.4218 36.1413L39.1579 32.4052C39.3471 32.216 39.5835 32.1214 39.82 32.0741H40.0092H42.232C42.7995 32.0741 43.2724 32.4525 43.4143 33.02V33.2091V37.1345L44.2183 37.9384H45.9208C46.441 37.9384 46.8667 37.6074 46.914 37.0872V36.898C46.914 36.2359 47.4342 35.7157 48.0963 35.7157C48.7584 35.7157 49.2786 36.2359 49.2786 36.898C49.2786 38.5533 48.0963 39.972 46.4883 40.2558L51.4068 45.1743L53.535 43.0461V42.0529C53.535 41.8165 53.6296 41.58 53.7715 41.3435L53.9133 41.2017L55.6632 39.4518L46.8667 30.6553ZM27.1455 47.9173C27.1455 48.4848 27.6184 48.9577 28.1859 48.9577C28.1859 48.9577 28.2332 48.9577 28.2805 48.9577L27.1928 47.87C27.1455 47.87 27.1455 47.9173 27.1455 47.9173ZM30.0776 50.8494C30.0776 51.417 30.5506 51.8899 31.1181 51.8899H31.2127L30.1249 50.8022C30.0776 50.8494 30.0776 50.8494 30.0776 50.8494ZM33.0098 53.8289C33.0098 54.3964 33.4827 54.8694 34.0503 54.8694H34.1448L33.0571 53.7343C33.0571 53.7816 33.0571 53.7816 33.0098 53.8289ZM35.9893 56.7611C35.9893 57.3286 36.4622 57.8015 37.0297 57.8015C37.077 57.8015 37.077 57.8015 37.1243 57.8015L36.0366 56.7138C35.9893 56.7138 35.9893 56.7611 35.9893 56.7611ZM34.9015 30.6553H33.1044L24.3552 39.4518L26.8144 41.9111C27.0036 42.1002 27.0982 42.3367 27.1455 42.5732V42.7623V44.4649L40.1038 57.4232L40.2456 57.5178L40.3875 57.6124C40.4821 57.7069 40.624 57.7542 40.7659 57.8015C41.3334 57.8015 41.8063 57.3286 41.8063 56.7611C41.759 56.6192 41.7117 56.5246 41.6171 56.3827L41.5226 56.2409L41.3807 56.099L35.5163 50.2346C35.0434 49.7617 35.0434 49.0523 35.5163 48.5794C35.942 48.1537 36.5568 48.1065 37.0297 48.4375L37.1716 48.5794L44.5966 56.0044L44.8331 56.1463L44.975 56.2409L45.1641 56.3354H45.2114C45.7789 56.3354 46.2519 55.8625 46.2519 55.3423C46.2046 55.2004 46.1573 55.1058 46.0627 54.9639L45.9681 54.8221L45.8262 54.6802L38.4485 47.3025C37.9756 46.8295 37.9756 46.0729 38.4485 45.6472C38.8741 45.2689 39.489 45.1743 39.9619 45.5053L40.1038 45.6472L47.4815 53.0249L47.5288 53.0722L48.2382 53.7816L48.3801 53.9235L48.5219 54.0181C48.6165 54.1127 48.7584 54.16 48.9003 54.2073C49.4678 54.2073 49.9407 53.7343 49.9407 53.1668C49.8934 53.0249 49.8461 52.9303 49.7516 52.7885L49.657 52.6466L49.5151 52.5047L41.3807 44.4176C40.9078 43.9447 40.955 43.188 41.3807 42.7623C41.8063 42.384 42.4211 42.3367 42.8941 42.6205L43.0359 42.7623L49.7043 49.4307L49.7516 49.4779L49.988 49.6198C50.0826 49.6671 50.1772 49.7617 50.3191 49.7617H50.3664H50.5555C50.9812 49.6671 51.3122 49.3361 51.4068 48.9104V48.7213V48.674L51.3122 48.4848L51.2176 48.3429L51.0758 48.1064L51.0285 48.0592L41.4753 38.4587C41.2861 38.2695 41.1915 38.033 41.1442 37.7966V37.6074V34.3442H40.4821L37.1243 37.702C36.9824 37.8439 36.8405 37.9857 36.6987 38.0803L36.5095 38.2222C36.1311 38.506 35.6582 38.6951 35.1853 38.7897H34.8069H34.4759C32.726 38.6006 31.4018 37.1818 31.4018 35.4319C31.4018 34.8171 31.591 34.2496 31.9694 33.7767L32.1112 33.5875L32.395 33.2564L34.9015 30.6553ZM27.3819 18.2173L27.5238 18.3591L34.9015 25.7368C35.0907 25.926 35.1853 26.1152 35.2326 26.3989V26.5881V28.0542C35.2326 28.1488 35.2326 28.2434 35.1853 28.338H44.7385C44.7385 28.2907 44.7385 28.2434 44.7385 28.2434V28.0542V26.5881C44.7385 26.3517 44.8331 26.1152 44.975 25.8787L45.0695 25.7368L52.4 18.3591C52.8729 17.9335 53.6296 17.9335 54.0552 18.4064C54.4336 18.7848 54.4809 19.3996 54.1971 19.8725L54.0552 20.0144L47.0559 27.0138V27.4867L58.1224 38.6005H58.6427L62.0005 35.29C62.4261 34.8644 63.0409 34.8171 63.5138 35.1482L63.6557 35.29C64.0341 35.7157 64.1287 36.3305 63.7976 36.8034L63.6557 36.9453L59.9669 40.6342C59.7777 40.8233 59.5412 40.9179 59.3048 40.9652H59.1156H57.6495C57.5549 40.9652 57.5076 40.9652 57.413 40.9652L55.8524 42.5259V43.519C55.8524 43.7555 55.7578 43.992 55.6159 44.2284L55.474 44.3703L52.9675 46.8768L53.0621 47.0187C53.3458 47.3971 53.535 47.87 53.5823 48.3429L53.6296 48.674C53.6296 49.9509 52.8729 51.1332 51.7379 51.7007C51.9743 52.1264 52.1162 52.5993 52.1162 53.0722C52.1162 54.9639 50.6028 56.4773 48.7111 56.4773C48.5692 56.4773 48.3801 56.4773 48.2382 56.43C47.7652 57.8015 46.4883 58.7001 45.0222 58.7001C44.5493 58.7001 44.0764 58.5582 43.6507 58.3217C43.0832 59.4568 41.9009 60.2135 40.624 60.2135C40.0092 60.2135 39.4417 59.977 38.9687 59.646L38.7796 59.5041L38.5904 59.646C38.1175 59.977 37.5026 60.2135 36.9351 60.2135C35.2326 60.2135 33.7665 58.9366 33.5773 57.234C32.0167 57.0448 30.8343 55.8152 30.6452 54.3018C29.0845 54.1127 27.9022 52.883 27.713 51.3697C26.0104 51.1805 24.7335 49.7144 24.7335 48.0119C24.7335 47.3971 24.97 46.8295 25.301 46.3566L25.3956 46.2147L25.0646 45.8837C24.8754 45.6945 24.7808 45.458 24.7335 45.2216V45.0324V43.3299L22.5107 40.9652H22.4634H22.2743H20.8082C20.5717 40.9652 20.3353 40.8706 20.0988 40.7287L19.9569 40.6342L16.2681 36.9453C15.8424 36.4251 15.937 35.7157 16.4572 35.29C16.8356 35.0063 17.3558 34.959 17.7814 35.1955L17.9233 35.3373L21.2811 38.6478H21.7541L32.9152 27.534V27.061L25.8685 20.0144C25.4902 19.5888 25.3956 18.9739 25.7267 18.501L25.8685 18.3591C26.2469 17.9335 26.909 17.8862 27.3819 18.2173Z" fill="#203003"/>
</svg>
