<svg width="80" height="80" viewBox="0 0 80 80" fill="none" xmlns="http://www.w3.org/2000/svg">
<rect x="1" y="1" width="78" height="78" rx="39" fill="#F4FEC9"/>
<rect x="1" y="1" width="78" height="78" rx="39" stroke="#7DA907" stroke-width="2" stroke-linecap="round" stroke-dasharray="6 8"/>
<g clip-path="url(#clip0_655_332)">
<path d="M38.8456 18.3899C38.7241 18.3899 38.643 18.4709 38.6025 18.5519V18.6734V27.3013C38.6025 27.9494 38.076 28.4759 37.4279 28.5165C36.8608 28.5165 36.3342 28.1114 36.2532 27.5443V27.3013V20.0911C36.2532 19.9291 36.1317 19.8076 35.9696 19.8076C35.8481 19.8076 35.7671 19.8886 35.7266 19.9696L35.6861 20.0911V29.4886C35.6861 30.1367 35.1595 30.6633 34.5114 30.6633C33.9443 30.6633 33.4582 30.2582 33.3367 29.6911V29.4886V26.2886C33.2557 26.2886 33.1747 26.3291 33.0532 26.3291C32.9316 26.3291 32.8506 26.4101 32.8101 26.4911V26.6127V30.6633L34.0253 33.1342L36.2127 36.0101C36.3342 36.1722 36.4152 36.3342 36.4152 36.5367V36.7392V38.4405H42.7342V38.157L42.7747 37.8329L44.881 30.7443V21.5494C44.881 21.4278 44.8 21.3468 44.719 21.3063H44.638C44.5165 21.3063 44.4354 21.3873 44.3949 21.4684V21.5494V27.3013C44.3949 27.9494 43.8684 28.4759 43.2203 28.5165C42.6532 28.5165 42.1266 28.1114 42.0456 27.5443V27.3013V20.0911C42.0456 19.9291 41.9241 19.8481 41.762 19.8481C41.6405 19.8481 41.5595 19.9291 41.519 20.0101V20.0911V27.3013C41.519 27.9494 40.9924 28.4759 40.3443 28.5165C39.7772 28.5165 39.2506 28.1114 39.1696 27.5443V27.3013V18.6329C39.1696 18.4709 39.0886 18.3494 38.9266 18.3494C38.9671 18.3494 38.9266 18.3494 38.8456 18.3899ZM54.7646 28.5165C54.643 28.5165 54.562 28.5975 54.5215 28.6785V28.7595V37.4278C54.5215 38.0759 53.9949 38.6025 53.3468 38.643C52.7798 38.643 52.2532 38.238 52.1722 37.6709L52.1317 37.4684V30.2177C52.1317 30.0557 52.0101 29.9342 51.8886 29.9342C51.7671 29.9342 51.6861 30.0152 51.6456 30.0962V30.1772V39.5747C51.6456 40.2228 51.119 40.7494 50.4709 40.7899C49.9038 40.7899 49.3772 40.3848 49.2962 39.8177V39.6152V36.4152C49.2152 36.4152 49.1342 36.4557 49.0127 36.4557C48.8911 36.4557 48.8101 36.5367 48.7696 36.6177V36.6987V40.7494L49.9848 43.2203L52.1722 46.0962C52.2937 46.2582 52.3747 46.4203 52.4152 46.6228V46.8253V48.5266H58.7342V48.2835L58.7747 47.9595L60.881 40.9114V31.676C60.881 31.5544 60.8 31.4734 60.719 31.4329H60.638C60.5165 31.4329 60.4355 31.5139 60.395 31.5949V31.676V37.4278C60.395 38.0759 59.8684 38.6025 59.2203 38.643C58.6532 38.643 58.1266 38.238 58.0456 37.6709L57.9241 37.4278V30.2177C57.9241 30.0557 57.8025 29.9747 57.6405 29.9747C57.519 29.9747 57.438 30.0557 57.3975 30.1367V30.2177V37.4278C57.3975 38.0759 56.8709 38.6025 56.2228 38.643C55.6557 38.643 55.1291 38.238 55.0481 37.6709V37.4278V28.7595C55.0481 28.638 54.9266 28.5165 54.7646 28.5165ZM24.3848 34.9975C24.2633 34.9975 24.1823 35.0785 24.1418 35.1595V35.2405V43.9089C24.1418 44.557 23.6152 45.0835 22.9671 45.1241C22.4 45.1241 21.8734 44.719 21.7924 44.1519V43.9494V36.6987C21.7924 36.5367 21.6709 36.4152 21.5494 36.4152C21.4278 36.4152 21.3468 36.4962 21.3063 36.5772V36.6582V46.0557C21.3063 46.7038 20.7797 47.2304 20.1316 47.2709C19.5646 47.2709 19.038 46.8658 18.957 46.2987V46.0962V42.8962C18.8759 42.8962 18.7949 42.9367 18.6734 42.9367C18.5519 42.9367 18.4709 43.0177 18.4304 43.0987L18.3899 43.1797V47.2304L19.6051 49.7013L21.7924 52.5772C21.9139 52.7392 21.9949 52.9013 21.9949 53.1038V53.3063V55.0076H28.2329V54.7646L28.2734 54.4405L30.3798 47.3924V38.157C30.3798 38.0354 30.2987 37.9544 30.2177 37.9139L30.1367 37.8734C30.0152 37.8734 29.9342 37.9544 29.8937 38.0354V38.1165V43.9089C29.8937 44.557 29.3671 45.0835 28.719 45.1241C28.1519 45.1241 27.6253 44.719 27.5443 44.1519V43.9494V36.6987C27.5443 36.5367 27.4228 36.4557 27.3013 36.4152C27.1798 36.4152 27.0987 36.4962 27.0582 36.5772V36.6582V43.9089C27.0582 44.557 26.5316 45.0835 25.8835 45.1241C25.3165 45.1241 24.7899 44.719 24.7089 44.1519V43.9494V35.281C24.7089 35.119 24.6279 34.9975 24.4658 34.9975C24.4658 34.9975 24.4253 34.9975 24.3848 34.9975ZM24.3848 32.6481C25.3165 32.6481 26.1671 33.1342 26.6532 33.9443L26.7342 34.1468L26.9772 34.1063H27.2608C28.1924 34.1063 29.0835 34.5924 29.5291 35.4025L29.6101 35.6051L29.8532 35.5646H30.1367C31.4734 35.5646 32.6076 36.5367 32.7696 37.8734V38.157V47.5544L32.7291 47.8785L30.6228 54.9266V55.4127C31.0279 55.7367 31.2709 56.1823 31.3519 56.6684V56.9114V62.7038C31.3519 63.3519 30.8253 63.8785 30.1772 63.919C29.6101 63.919 29.0835 63.5139 29.0025 62.9468V62.7443V57.438H21.2253V58.4911C21.3873 58.2076 21.6709 58.0456 21.9949 57.9646H22.1975H23.6557C24.3038 57.9646 24.8304 58.4911 24.8304 59.1392C24.8304 59.7063 24.4253 60.1924 23.8582 60.3139L23.6557 60.3544H22.1975C21.7924 60.3544 21.4279 60.1519 21.2253 59.8278V62.7848C21.2253 63.3519 20.8203 63.838 20.2532 63.9595H20.0506C19.4835 63.9595 18.9975 63.5544 18.8759 62.9873V62.7848V56.9924C18.8759 56.4253 19.1595 55.8582 19.6051 55.4937V53.7519L17.5797 50.9975L16.1215 48.1215C16.081 48 16.0405 47.8785 16 47.757V47.5544V43.2203C16 41.762 17.1747 40.5873 18.5924 40.5873C18.6734 40.5873 18.7544 40.5873 18.8759 40.6278V36.6987C18.8759 35.2405 20.0506 34.0658 21.5089 34.0658C21.5899 34.0658 21.7114 34.0658 21.7924 34.0658L22.0354 34.1063L22.157 33.9038C22.562 33.1747 23.3316 32.6886 24.1418 32.6076L24.3848 32.6481ZM38.8456 16C39.7772 16 40.6279 16.4861 41.1139 17.2962L41.1949 17.4987L41.438 17.4582H41.7215C42.6532 17.4582 43.5038 17.9443 43.9899 18.7544L44.0709 18.957L44.3139 18.9165H44.5975C45.9342 18.9165 47.0684 19.9291 47.1899 21.2658V21.5494V30.9468L47.1494 31.2709L45.043 38.319V38.8456C45.4481 39.1696 45.6911 39.6152 45.7722 40.1013V40.3443V62.7848C45.7722 63.4329 45.2456 63.9595 44.5975 64C44.0304 64 43.5038 63.5949 43.4228 63.0278V62.8253V40.8709H35.7266V41.924C35.8886 41.6405 36.1722 41.4785 36.4962 41.3975H36.6987H38.157C38.8051 41.3975 39.3316 41.924 39.3722 42.5721C39.3722 43.1392 38.9671 43.6658 38.4 43.7468H38.1975H36.7392C36.3342 43.7468 35.9696 43.5443 35.7671 43.2203V62.8253C35.7671 63.3924 35.362 63.8785 34.7949 64H34.5924C34.0253 64 33.5392 63.5949 33.4177 63.0278V62.8253V40.4253C33.4177 39.8582 33.7013 39.2911 34.1468 38.9266V37.1848L32.1215 34.4304L30.6633 31.5544C30.6228 31.4329 30.5823 31.3114 30.5418 31.1899V30.9468V26.6127C30.5418 25.1544 31.7165 23.9797 33.1747 23.9797C33.2557 23.9797 33.3367 23.9797 33.4582 24.0203V20.1316C33.4582 18.6734 34.6329 17.4987 36.0911 17.4987C36.1722 17.4987 36.2937 17.4987 36.3747 17.4987L36.6177 17.5392L36.7392 17.3367C37.1443 16.6076 37.9139 16.1215 38.7241 16.0405L38.8456 16ZM54.7646 26.1266C55.6962 26.1266 56.5468 26.6127 57.0329 27.4228L57.1139 27.6253L57.357 27.5848H57.6405C58.5722 27.5848 59.4633 28.0709 59.9089 28.881L59.9899 29.0835L60.2329 29.043H60.5165C61.8532 29.043 62.9874 30.0557 63.1494 31.3519V31.6354V41.0734L63.1089 41.3975L61.0025 48.4456V48.9316C61.4076 49.2557 61.6506 49.7013 61.7317 50.1873V50.4304V62.7443C61.7317 63.3924 61.2051 63.919 60.557 63.9595C59.9899 63.9595 59.4633 63.5544 59.3823 62.9873V62.7848V50.9165H51.6051V51.9696C51.7671 51.6861 52.0506 51.5241 52.3747 51.443H52.5772H54.0354C54.6836 51.443 55.2101 51.9696 55.2506 52.6177C55.2506 53.1848 54.8456 53.7114 54.2785 53.7924H54.076H52.6177C52.2127 53.7924 51.8481 53.5899 51.6456 53.2658V62.7443C51.6456 63.3114 51.2405 63.7975 50.6734 63.919H50.4709C49.9038 63.919 49.4177 63.5139 49.2962 62.9468V62.7443V50.4709C49.2962 49.9038 49.5798 49.3367 50.0253 48.9722V47.2304L47.9595 44.4759L46.5013 41.6C46.4608 41.4785 46.4203 41.357 46.3798 41.2354V41.0734V36.6987C46.3798 35.2405 47.5544 34.0658 49.0127 34.0658C49.0937 34.0658 49.1747 34.0658 49.2962 34.1063V30.1772C49.2962 28.719 50.4709 27.5443 51.9291 27.5443C52.0101 27.5443 52.1317 27.5443 52.2127 27.5443L52.4557 27.5848L52.5772 27.3823C52.9823 26.6532 53.7519 26.1671 54.562 26.0861L54.7646 26.1266Z" fill="#203003"/>
</g>
<defs>
<clipPath id="clip0_655_332">
<rect width="48" height="48" fill="white" transform="translate(16 16)"/>
</clipPath>
</defs>
</svg>
