<svg width="80" height="80" viewBox="0 0 80 80" fill="none" xmlns="http://www.w3.org/2000/svg">
<rect x="1" y="1" width="78" height="78" rx="39" fill="#D0F6FD"/>
<rect x="1" y="1" width="78" height="78" rx="39" stroke="#0D84AD" stroke-width="2" stroke-linecap="round" stroke-dasharray="4 12 12 16"/>
<path d="M38.4997 24.1674H34.5215L36.534 26.8352L38.4997 24.1674ZM29.8412 24.1674H25.8161L27.8286 26.8352L29.8412 24.1674ZM40.8399 24.9631L38.8274 27.6308H42.8056L40.8399 24.9631ZM32.1813 24.9631L30.1688 27.6308H34.1471L32.1813 24.9631ZM23.5228 24.9631L21.5102 27.6308H25.4885L23.5228 24.9631ZM26.9394 29.971H21.6974L29.5604 39.1444L26.9394 29.971ZM42.6652 29.971H37.3765L34.7555 39.1444L42.6652 29.971ZM34.9427 29.971H29.3731L32.1813 39.706L34.9427 29.971ZM40.8867 21.8273H40.9803H41.0739H41.1675H41.2611L41.3547 21.8741L41.4483 21.9209C41.4951 21.9677 41.5419 21.9677 41.5887 22.0145L41.6824 22.0613C41.7292 22.1081 41.776 22.1549 41.8228 22.2485L41.7292 22.1081L41.776 22.1549L41.8228 22.2485L46.1754 28.0053V28.0521C46.2223 28.0989 46.2223 28.0989 46.2223 28.1457V28.2861C46.2691 28.3797 46.3159 28.5201 46.3159 28.6137V28.7541V28.8009C46.3159 28.8477 46.3159 28.8945 46.3159 28.9413V28.8009C46.3159 28.8477 46.3159 28.9413 46.3159 28.9881C46.3159 29.0349 46.3159 29.0349 46.3159 29.0817L46.2691 29.1753L46.2223 29.2689L46.1754 29.3625C46.1286 29.4561 46.0818 29.5029 46.035 29.5497L46.1286 29.4561L46.0818 29.5497L46.035 29.5966L33.0238 44.7607L32.977 44.8075L32.9302 44.8543H32.8834L32.7898 44.9011L32.743 44.9479H32.6962L32.6026 44.9947H32.5558H32.6494L32.5558 45.0416H32.509H32.4153L32.5558 44.9947C32.4622 44.9947 32.4153 45.0416 32.3217 45.0416H32.1813H32.0877H31.9941H31.9473H31.9005H31.8537H31.8069H31.7601L31.7133 44.9947H31.6665H31.7133H31.6665L31.6197 44.9479L31.5729 44.9011C31.5261 44.8543 31.4793 44.8075 31.4325 44.7607L31.5261 44.8543L31.4793 44.8075L31.4325 44.7607L18.2808 29.5497L18.234 29.5029C18.1872 29.4561 18.1872 29.4093 18.1404 29.4093L18.0936 29.3625C18.0936 29.3157 18.0468 29.2689 18.0468 29.2689V29.2221C18.0468 29.1753 18 29.1285 18 29.0817V29.0349C18 28.9881 18 28.9413 18 28.8945V28.7073C18 28.6605 18 28.6605 18 28.6137V28.7541C18 28.6137 18.0468 28.4265 18.0936 28.2861C18.1404 28.1925 18.1872 28.1457 18.234 28.0989L18.1872 28.1457C18.1872 28.1457 18.1872 28.0989 18.234 28.0989L22.5867 22.3421C22.5867 22.2953 22.6335 22.2953 22.6335 22.2485L22.6803 22.2017L22.7739 22.1081L22.8207 22.0613L22.9143 22.0145L22.8207 22.1081C22.8675 22.0613 22.9143 22.0145 23.0079 22.0145L23.1015 21.9677H23.1483L23.2887 21.9209H23.4292L40.8867 21.8273ZM50.9962 52.9045C52.6343 52.9045 53.9916 51.6876 54.132 50.0495V49.7219V43.263C54.132 42.7014 54.5532 42.2334 55.1148 42.093H55.302H58.4847L54.2724 32.9196L54.1788 32.4515C54.1788 24.729 47.9072 18.4574 40.1379 18.4574C37.2829 18.4574 34.5215 19.3467 32.1813 20.938C31.6197 21.3124 30.8708 21.172 30.4964 20.6104C30.122 20.0487 30.2624 19.2999 30.824 18.9255C38.2189 13.7771 48.422 15.6024 53.5703 22.9973C55.3489 25.5715 56.3785 28.6137 56.4721 31.7495V32.0303L60.7312 41.2037L60.8248 41.6717V43.1694C60.8248 43.7311 60.4504 44.1991 59.8887 44.3395H59.7015H56.5189V49.675C56.5189 52.5768 54.2724 54.9638 51.3706 55.151H50.9962H47.8136V62.6395C47.8136 63.2011 47.3923 63.6692 46.8307 63.8096H46.6435C46.0818 63.8096 45.6138 63.3883 45.4734 62.8267V62.6395V55.151H44.4905C43.8353 55.151 43.3205 54.5894 43.3205 53.9809C43.3205 53.4193 43.7417 52.9513 44.2565 52.8577H44.4437L50.9962 52.9045ZM29.654 44.9479C31.1049 48.5518 31.8069 50.9387 31.9005 53.5129V54.0745V62.7331C31.9473 63.3883 31.4793 63.95 30.824 63.9968C30.1688 64.0436 29.6072 63.5756 29.5604 62.9203V62.7331V54.0745C29.5604 51.6876 28.9519 49.441 27.501 45.8372C27.267 45.2288 27.5478 44.5735 28.1563 44.2927C28.7179 44.1055 29.4199 44.3863 29.654 44.9479Z" fill="#184861"/>
</svg>
