<svg width="80" height="80" viewBox="0 0 80 80" fill="none" xmlns="http://www.w3.org/2000/svg">
<rect x="1" y="1" width="78" height="78" rx="39" fill="#F4FEC9"/>
<rect x="1" y="1" width="78" height="78" rx="39" stroke="#7DA907" stroke-width="2" stroke-linecap="round" stroke-dasharray="6 8"/>
<path d="M32.9123 24.0073C32.5845 23.6795 32.0695 23.6795 31.7417 24.0073L31.8353 23.9604L31.7885 24.0073L31.3202 24.4755C30.852 24.9438 30.1028 24.9438 29.6813 24.4755L29.2131 24.0073C28.8853 23.6795 28.3234 23.6327 27.9956 24.0073C27.6678 24.3819 27.621 24.897 27.9956 25.2247L30.5242 27.7534L33.006 25.2716L33.1465 25.0843C33.3338 24.8033 33.2869 24.4287 33.0996 24.1477L32.9123 24.0073ZM30.6179 21.9001C32.1163 20.9636 34.1298 21.4787 35.0195 22.9771C35.7687 24.1946 35.5814 25.7398 34.6449 26.8168L34.5981 26.8637L31.2266 30.2351C30.7583 30.7034 30.0091 30.7034 29.5877 30.2351L26.2162 26.8637C25.0455 25.5525 25.0924 23.539 26.4035 22.3684C27.4337 21.385 29.0258 21.2445 30.2432 21.9937L30.3837 22.0874L30.6179 21.9001ZM25.4201 30.7971C25.0924 30.4693 24.5773 30.4693 24.2495 30.7971L24.3431 30.7502H24.2963L23.8281 31.2185C23.3598 31.6868 22.6106 31.6868 22.1891 31.2185L21.7209 30.7502C21.3931 30.4224 20.8312 30.4224 20.5034 30.7971C20.2224 31.1248 20.1756 31.5931 20.4566 31.9209L22.9852 34.4495L25.467 31.9677L25.6075 31.7804C25.7948 31.4994 25.7479 31.1248 25.5606 30.8907L25.4201 30.7971ZM40.3577 30.7971C40.0299 30.4693 39.5148 30.4693 39.187 30.7971L39.2807 30.7502L39.2339 30.7971L38.7656 31.2653C38.2973 31.7336 37.5481 31.7336 37.1267 31.2653L36.7053 30.7971C36.3775 30.4693 35.8156 30.4693 35.4878 30.8439C35.16 31.1717 35.16 31.6399 35.4409 31.9677L37.9696 34.4963L40.4513 32.0145L40.5918 31.8272C40.7323 31.5463 40.7323 31.1717 40.545 30.9375L40.3577 30.7971ZM23.1725 28.6431C24.6709 27.7065 26.6845 28.2216 27.5742 29.7201C28.3234 30.9375 28.1361 32.4828 27.1995 33.5598L27.2932 33.4661L27.1995 33.6066L23.8281 36.9781C23.3598 37.4464 22.6574 37.4464 22.1891 36.9781L18.8177 33.6066C17.647 32.2955 17.7407 30.282 19.0518 29.0645C20.082 28.128 21.6272 27.9875 22.8447 28.6899L22.9852 28.7835L23.1725 28.6431ZM38.11 28.6431C39.6085 27.7065 41.5752 28.2216 42.5117 29.7201C43.2609 30.9375 43.0736 32.5296 42.1371 33.5598L42.2307 33.4661L42.0903 33.6066L38.7188 36.9781C38.2505 37.4464 37.5013 37.4464 37.0799 36.9781L33.7084 33.6066C32.4909 32.3423 32.5377 30.282 33.802 29.0645C34.879 28.0343 36.5179 27.8938 37.7354 28.6899L37.8759 28.7835L38.11 28.6431ZM32.9123 38.2424C32.5845 37.9146 32.0695 37.9146 31.7417 38.2424L31.8353 38.1956L31.7417 38.2424L31.2734 38.7107C30.8052 39.1789 30.1028 39.1789 29.6345 38.7107L29.1662 38.2424C28.8385 37.9146 28.2765 37.9146 27.9488 38.2892C27.621 38.617 27.621 39.1321 27.9019 39.4599L30.4305 41.9885L32.9123 39.5067L33.0528 39.3194C33.2401 39.0385 33.1933 38.6638 33.006 38.3829L32.9123 38.2424ZM30.6179 36.1352C32.1163 35.1987 34.1298 35.7138 35.0195 37.2122C35.7687 38.4297 35.5814 39.975 34.6449 41.052L34.5981 41.0988L31.2266 44.4703C30.7583 44.9385 30.0091 44.9385 29.5877 44.4703L26.2162 41.052C24.9987 39.7408 25.0924 37.7273 26.4035 36.5098C27.4805 35.5265 29.0258 35.386 30.2432 36.1352L30.3837 36.2289L30.6179 36.1352ZM39.7021 16C48.5054 16 55.7635 22.9771 56.0445 31.7804V32.0614L60.2588 41.2393L60.3525 41.7075V43.1592C60.3525 43.7211 59.931 44.1893 59.3691 44.3298H59.1818H55.9976V49.668C55.9976 52.5712 53.75 54.9593 50.8467 55.1466H50.4721H47.288V62.6388C47.288 63.2007 46.9134 63.669 46.3514 63.8095H46.1641C45.6022 63.8095 45.134 63.388 44.9935 62.8261V62.6388V55.1466H44.0101C43.3546 55.1935 42.7926 54.7252 42.7458 54.0696C42.699 53.4141 43.1673 52.8522 43.8228 52.8053H44.0101H50.519C52.1579 52.8053 53.5158 51.5879 53.6563 49.9489V49.6212V43.1123C53.6563 42.5504 54.0778 42.0822 54.6397 41.9417H54.827H58.0112L53.7968 32.7638L53.7031 32.2955C53.7031 24.5692 47.4284 18.2945 39.6553 18.2945C36.7989 18.2945 34.0362 19.1842 31.6949 20.7763C31.1798 21.1509 30.4305 21.0572 30.0559 20.5421C29.6813 20.027 29.775 19.2778 30.2901 18.9032C30.2901 18.9032 30.3369 18.9032 30.3369 18.8564C33.0996 17.0302 36.3306 16 39.7021 16ZM29.2131 44.9385C30.6647 48.4973 31.3671 50.9323 31.4607 53.5077V54.0696V62.7325C31.5075 63.388 31.0393 63.95 30.3837 63.9968C29.7282 64.0436 29.1662 63.5753 29.1194 62.9198V62.7325V54.0696C29.1194 51.6347 28.5107 49.387 27.0591 45.8282C26.8249 45.2195 27.1059 44.5639 27.7146 44.283C28.3234 44.002 28.9321 44.3298 29.2131 44.9385Z" fill="#203003"/>
</svg>
