<svg width="80" height="80" viewBox="0 0 80 80" fill="none" xmlns="http://www.w3.org/2000/svg">
<rect x="1" y="1" width="78" height="78" rx="39" fill="#D0F6FD"/>
<rect x="1" y="1" width="78" height="78" rx="39" stroke="#0D84AD" stroke-width="2" stroke-linecap="round" stroke-dasharray="4 12 12 16"/>
<path d="M40.9266 22.6972L41.0672 22.8378L43.9737 25.7443H44.0206L44.1143 25.838L44.0206 25.7443C44.0674 25.7912 44.1143 25.838 44.1612 25.8849L44.2081 25.9787L44.2549 26.0255C44.3018 26.1193 44.3018 26.2131 44.3487 26.3068C44.3956 26.4474 44.3956 26.5881 44.3487 26.7287V26.5412C44.3487 26.635 44.3487 26.7287 44.3018 26.8225C44.3018 26.8693 44.3018 26.8693 44.3018 26.9162C44.3018 26.9631 44.2549 27.01 44.2549 27.0569V27.1037C44.2549 27.1506 44.2081 27.1506 44.2081 27.1975L44.1612 27.2444C44.1143 27.2913 44.0674 27.3381 44.0206 27.385L41.1141 30.2914C40.6453 30.7602 39.8953 30.7602 39.4734 30.2914C39.0984 29.8695 39.0046 29.2601 39.3327 28.7913L39.4734 28.6507L40.3641 27.76H35.6763L32.2073 31.229C32.4886 31.229 32.7229 31.2759 32.9573 31.4165L33.098 31.5572L35.6294 34.0886H40.2703L39.3796 33.1979C38.9577 32.776 38.9108 32.1666 39.239 31.6978L39.3796 31.5572C39.8015 31.1353 40.4109 31.0884 40.8797 31.4165L41.0204 31.5572L43.9268 34.4636C43.9737 34.5105 44.0206 34.5573 44.0206 34.6042L43.9268 34.4636C43.9737 34.5105 44.0206 34.6042 44.0674 34.6511L44.1143 34.7449C44.1143 34.7449 44.1143 34.7917 44.1612 34.8386C44.2081 34.9324 44.2081 35.0261 44.2549 35.1199V35.1668C44.3018 35.3543 44.2549 35.5418 44.2081 35.7293L44.1612 35.8231V35.8699L44.1143 35.9637L44.0674 36.0106C44.0206 36.0574 43.9737 36.1043 43.9268 36.1512L41.0204 39.0576C40.5516 39.5264 39.8015 39.5264 39.3796 39.0576C39.0046 38.6357 38.9108 38.0263 39.239 37.5575L39.3796 37.4169L40.2703 36.5262H35.1137C34.8793 36.5262 34.6449 36.4325 34.4105 36.2918L34.2699 36.1981L31.3635 33.2916C31.1291 33.0572 30.9885 32.7291 31.0353 32.401L27.2382 36.245C27.1444 36.245 26.9101 36.3387 26.6757 36.3856H26.4882H19.2689C18.6126 36.4325 18.0501 35.9637 18.0032 35.3074C17.9563 34.6511 18.4251 34.0886 19.0814 34.0417H19.3158H26.0663L29.5352 30.6196C29.254 30.6196 29.0196 30.5727 28.7852 30.4321L28.5508 30.2446L26.0194 27.7132H19.2689C18.7064 27.7132 18.2376 27.2912 18.097 26.7287V26.5412C18.097 25.9787 18.5189 25.5099 19.0345 25.3693H19.2689H26.4882C26.7225 25.3693 26.9569 25.463 27.1913 25.6036L27.332 25.7443L30.2384 28.6507C30.4728 28.8851 30.6134 29.2132 30.5665 29.5414L34.3637 25.7443C34.5512 25.5568 34.7387 25.463 35.02 25.4161H35.2075H40.3172L39.4265 24.5254C39.0046 24.1035 38.9577 23.4941 39.2859 23.0253L39.4265 22.8847C39.8015 22.4159 40.4109 22.3691 40.9266 22.6972ZM27.6601 37.8388L27.7539 38.2607L27.9883 39.1045L28.2695 39.9952L28.5977 40.9328L28.9727 42.011L30.4259 45.9956L30.6603 46.6988C31.4104 48.8083 31.8791 51.0584 32.0198 53.3086V54.0586V62.7311C32.0666 63.3874 31.5979 63.9499 30.9416 63.9968C30.2853 64.0437 29.7227 63.5749 29.6759 62.9186V62.7311V54.0586C29.629 52.0897 29.3008 50.1209 28.6914 48.2457L28.2226 46.7456L26.7694 42.761L26.3944 41.6359L26.0663 40.6515L25.785 39.7139C25.7381 39.5733 25.6912 39.4327 25.6444 39.2452L25.41 38.3545C25.2693 37.7451 25.6444 37.0888 26.3006 36.9481C26.8632 36.8544 27.4726 37.1825 27.6601 37.8388ZM51.8023 52.8867C53.443 52.8867 54.8025 51.6678 54.9431 50.0271V49.699V43.1829C54.9431 42.6204 55.3182 42.1516 55.8807 42.011H56.0682H59.2559L55.0369 32.8229L54.9431 32.3541C54.9431 24.6192 48.6146 18.3375 40.8797 18.3375C36.0513 18.3844 31.5979 20.9158 29.0196 24.9942C28.6914 25.5568 27.9414 25.6974 27.4257 25.3693C26.8632 25.0411 26.7225 24.2911 27.0507 23.7754C31.7854 16.0874 41.8642 13.6966 49.599 18.4313C54.2868 21.2909 57.1933 26.3068 57.3808 31.7915V32.0728L61.6467 41.2609L61.7405 41.7297V43.1829C61.7405 43.7455 61.3654 44.2142 60.8029 44.3549H60.6154H57.4277V49.699C57.4277 52.6054 55.1775 54.9962 52.2711 55.1837H51.8961H48.7084V62.6842C48.7084 63.2467 48.3333 63.7155 47.7708 63.8561H47.5833C47.0207 63.903 46.5051 63.528 46.3645 62.9655V62.778V55.2775H45.38C44.7237 55.3243 44.1612 54.8556 44.1143 54.1993C44.0674 53.543 44.5362 52.9804 45.1925 52.9336H45.38L51.8023 52.8867Z" fill="#184861"/>
</svg>
