<svg width="80" height="80" viewBox="0 0 80 80" fill="none" xmlns="http://www.w3.org/2000/svg">
<rect x="1" y="1" width="78" height="78" rx="39" fill="#F4FEC9"/>
<rect x="1" y="1" width="78" height="78" rx="39" stroke="#7DA907" stroke-width="2" stroke-linecap="round" stroke-dasharray="6 8"/>
<g clip-path="url(#clip0_655_326)">
<path d="M46.2167 27.2071C46.6423 27.6327 46.6896 28.2474 46.3586 28.7203L46.2167 28.8622L40.4476 34.6785C40.022 35.1041 39.4073 35.1514 38.9344 34.8204L38.7926 34.6785L35.908 31.794C35.4352 31.3211 35.4352 30.6118 35.8607 30.1389C36.239 29.7134 36.9011 29.6661 37.3739 29.9498L37.5158 30.0917L39.5492 32.125L44.5143 27.2071C45.0345 26.7342 45.7438 26.7342 46.2167 27.2071ZM39.5965 24.7009C40.2585 24.7009 40.7786 25.2211 40.7786 25.8831C40.7786 26.5451 40.2585 27.0653 39.5965 27.0653C36.6646 27.0653 34.3003 29.4769 34.3003 32.4087C34.3003 35.3406 36.7119 37.7049 39.6437 37.7049C42.5756 37.7049 44.9399 35.2933 44.9399 32.4087C44.9399 31.7467 45.4601 31.2266 46.1221 31.2266C46.7841 31.2266 47.3043 31.7467 47.3043 32.4087C47.3043 36.6646 43.8523 40.0693 39.6437 40.0693C35.4352 40.0693 31.9832 36.6173 31.9832 32.4087C31.9359 28.1529 35.3879 24.7009 39.5965 24.7009ZM43.1903 16.0473C51.9858 16.0473 59.2208 23.0458 59.5518 31.8413V32.1723L63.0983 41.3461L63.1929 41.7717V43.1903C63.1929 43.7577 62.7673 44.2306 62.1999 44.3725H61.9634H59.5518V49.6687C59.5518 52.5532 57.3293 54.9648 54.3974 55.154H54.0191H50.8509V62.6254C50.8509 63.1929 50.4253 63.6657 49.8578 63.8076H49.6687C49.1012 63.8076 48.6284 63.4293 48.4865 62.8619V62.6727V55.2486H47.4935C47.1152 55.2486 46.7369 55.0594 46.5004 54.7284V62.72C46.5477 63.382 46.0748 63.9495 45.4128 63.9967C44.7508 64.044 44.1833 63.5712 44.1361 62.9091V62.72V54.0664C44.1361 51.5129 44.7035 49.3376 46.0276 46.3585L47.1624 43.8996C49.0539 39.7856 49.8578 37.4212 49.9524 34.4421V33.8747V32.4087C49.9051 31.7467 50.378 31.1793 51.04 31.132C51.702 31.0847 52.2695 31.5576 52.3168 32.2196V32.4087V33.8747C52.3168 37.3739 51.5602 39.9274 49.6687 44.136L48.5338 46.595C47.257 49.3849 46.6423 51.3237 46.5477 53.4044C46.7369 53.1679 47.0206 52.9788 47.3043 52.9315H47.4935H53.9718C55.5796 52.9315 56.951 51.702 57.0928 50.0942V49.7632V43.1903C57.0928 42.6228 57.4711 42.15 58.0386 42.0081H58.2277H60.6394V41.9608L57.282 32.787L57.1874 32.3615C57.3293 24.6536 51.1819 18.2698 43.474 18.1279C35.7662 17.9861 29.3824 24.1334 29.2405 31.8413C29.2405 32.0304 29.2405 32.1723 29.2405 32.3615C29.2405 33.0235 28.7203 33.5436 28.0583 33.5436C27.3963 33.5436 26.8761 33.0235 26.8761 32.3615C26.8761 26.687 29.8079 21.4381 34.6313 18.4589C27.68 19.121 22.2892 24.8428 22.0055 31.8413V32.3615L21.9582 32.787L18.4117 41.9608V42.0081H20.8233C21.3908 42.0081 21.8636 42.3864 22.0055 42.9538V43.143V49.6214C22.0055 51.2291 23.235 52.6005 24.8428 52.7423H25.1265H31.6522C32.3142 52.695 32.8816 53.1679 32.9289 53.8299C32.9762 54.492 32.5033 55.0594 31.8413 55.1067H31.6522H30.6591V62.5781C30.7064 63.2401 30.2335 63.8076 29.5715 63.8549C28.9095 63.9022 28.342 63.4293 28.2947 62.7673V62.5781V55.154H25.1265C22.2419 55.154 19.8303 52.9315 19.6411 49.9997V49.6214V44.3252H17.1822C16.6147 44.3252 16.1419 43.9469 16 43.3794V43.1903V41.7717L16.0946 41.3461L19.6411 32.1723V31.8413C19.9249 23.235 26.7815 16.331 35.3879 16H35.9553C36.5228 16 37.0429 16.4256 37.1375 16.993V17.1822C39.0763 16.4256 41.1569 16.0473 43.1903 16.0473Z" fill="#203003"/>
</g>
<defs>
<clipPath id="clip0_655_326">
<rect width="48" height="48" fill="white" transform="translate(16 16)"/>
</clipPath>
</defs>
</svg>
