<svg width="80" height="80" viewBox="0 0 80 80" fill="none" xmlns="http://www.w3.org/2000/svg">
<rect x="1" y="1" width="78" height="78" rx="39" fill="#D0F6FD"/>
<rect x="1" y="1" width="78" height="78" rx="39" stroke="#0D84AD" stroke-width="2" stroke-linecap="round" stroke-dasharray="4 12 12 16"/>
<g clip-path="url(#clip0_655_368)">
<path d="M40.4169 24.6939C48.2626 24.6939 54.5852 31.0627 54.6314 38.8622C54.6314 46.2925 48.5856 52.3382 41.1554 52.3382C34.1404 52.3382 28.4177 46.6155 28.4177 39.6006C28.4177 32.9549 33.7712 27.6014 40.4169 27.6014C46.6473 27.6014 51.7239 32.6318 51.7239 38.8622C51.7239 44.6772 46.9704 49.4307 41.1554 49.4307C35.7096 49.4307 31.3252 45.0003 31.3252 39.5545C31.3252 34.524 35.3865 30.4166 40.4169 30.4166C45.032 30.4166 48.8164 34.1548 48.8164 38.816C48.8164 43.0619 45.4012 46.4771 41.1554 46.4771C37.3248 46.4771 34.2327 43.3388 34.2327 39.5083C34.2327 36.0932 37.0018 33.278 40.4169 33.278C43.4629 33.278 45.9089 35.7239 45.9089 38.7699C45.9089 41.4005 43.786 43.5234 41.1554 43.5234C38.9401 43.5234 37.0941 41.7236 37.0941 39.4622C37.0941 37.6161 38.5709 36.1393 40.4169 36.1393C41.8476 36.1393 43.0014 37.2931 43.0014 38.7237C43.0014 39.3699 42.4937 39.8775 41.8476 39.8775C41.2015 39.8775 40.6938 39.3699 40.6938 38.7237C40.6938 38.5391 40.5554 38.4468 40.4169 38.4468C39.8631 38.4468 39.4016 38.9084 39.4016 39.4622C39.4016 40.4313 40.1862 41.2159 41.1554 41.2159C42.5399 41.2159 43.6014 40.1083 43.6014 38.7699C43.6014 37.0162 42.1707 35.5855 40.4169 35.5855C38.2479 35.5855 36.4941 37.3392 36.4941 39.5083C36.4941 42.0466 38.5709 44.1234 41.1092 44.1695C44.0629 44.1695 46.5089 41.7697 46.5089 38.816C46.5089 38.816 46.5089 38.8161 46.5089 38.7699C46.5089 35.4009 43.786 32.678 40.4169 32.678C36.6787 32.678 33.5866 35.7239 33.5866 39.4622C33.5866 43.6157 36.9556 46.9847 41.1092 46.9847C45.6781 46.9847 49.3702 43.2927 49.3702 38.7237C49.3702 33.7856 45.3551 29.7243 40.4169 29.7243C35.0635 29.7243 30.7253 34.0625 30.7253 39.416C30.7253 45.1849 35.3865 49.8461 41.1554 49.8461C47.2934 49.8461 52.3239 44.8618 52.3239 38.6776C52.3239 32.1242 46.9704 26.8168 40.4169 26.8168C33.4482 26.8168 27.8178 32.4472 27.8178 39.416C27.8178 46.8001 33.7712 52.7536 41.1554 52.7536C41.8015 52.7536 42.3091 53.2612 42.3091 53.9074C42.3091 54.5535 41.8015 55.0611 41.1554 55.0611C32.5252 55.0611 25.5102 48.0462 25.5102 39.416C25.5102 31.3858 32.156 24.6939 40.4169 24.6939ZM37.971 20.1711C38.0633 20.8172 37.6941 21.4172 37.0479 21.5095C27.0794 23.4017 20.4798 33.001 22.372 43.0158C23.3412 48.1385 26.4333 52.6151 30.9099 55.338C31.4637 55.6611 31.6483 56.3534 31.3252 56.9072C31.0022 57.461 30.3099 57.6456 29.7561 57.3225C29.7561 57.3225 29.7561 57.3225 29.71 57.3225C19.926 51.3691 16.8339 38.6314 22.7873 28.8475C25.7871 23.817 30.8637 20.3096 36.6326 19.2481C37.2787 19.1097 37.8787 19.525 37.971 20.1711ZM44.109 16.3406C44.5244 16.756 44.5705 17.3559 44.2475 17.8174L44.109 17.9559L43.0014 19.0635C54.3545 20.4942 62.3847 30.832 60.9541 42.1851C59.6618 52.3382 51.2162 59.9993 40.9708 60.2762H40.3708H17.2492C16.6031 60.3223 16.0493 59.8608 16.0032 59.2147C15.957 58.5686 16.4185 58.0148 17.0646 57.9686H17.2954H40.4631C50.6163 57.9686 58.8773 49.7538 58.8773 39.6006C58.8773 30.6012 52.37 22.894 43.5091 21.4172L44.2013 22.1095C44.6167 22.5248 44.6628 23.1248 44.3398 23.5863L44.2013 23.7247C43.786 24.1401 43.186 24.1863 42.7245 23.8632L42.586 23.7247L39.6785 20.8172C39.6324 20.7711 39.6324 20.7711 39.5862 20.7249L39.6785 20.8172C39.6324 20.7711 39.5862 20.7249 39.5401 20.6326C39.5401 20.6326 39.4939 20.5865 39.4939 20.5403L39.4478 20.448C39.4478 20.4019 39.4016 20.4019 39.4016 20.3557C39.4016 20.3096 39.4016 20.3096 39.3555 20.2634L39.3093 20.1711C39.2632 20.0327 39.2632 19.8481 39.3093 19.7096C39.3555 19.5712 39.4016 19.4327 39.4939 19.2943V19.2481C39.5401 19.202 39.5401 19.1558 39.5862 19.1558L42.4937 16.2483C42.9091 15.9253 43.6475 15.8791 44.109 16.3406ZM60.631 55.338L60.7694 55.4765L63.6769 58.3378C63.7231 58.384 63.7692 58.4301 63.7692 58.4301L63.6769 58.3378C63.7231 58.384 63.7692 58.4301 63.8154 58.5224C63.8154 58.5686 63.8615 58.5686 63.8615 58.6147L63.9077 58.6609C63.9077 58.707 63.9539 58.7532 63.9539 58.7532V58.7993L64 58.8916C64 59.0301 64 59.1685 64 59.307V59.1224C64 59.2147 64 59.307 63.9539 59.3993L63.9077 59.4916L63.8615 59.5839L63.8154 59.6762L63.7692 59.7224C63.7692 59.7685 63.7231 59.7685 63.7231 59.7685C63.6769 59.8147 63.6308 59.8608 63.5846 59.907L60.6771 62.8145C60.2156 63.276 59.4772 63.276 59.0619 62.8145C58.6927 62.3991 58.6004 61.7991 58.9234 61.3376L59.0619 61.153L59.9849 60.23H51.2162C50.5701 60.2762 50.0163 59.8147 49.9702 59.1685C49.924 58.5224 50.3855 57.9686 51.0316 57.9225H51.2162H60.031L59.108 56.9995C58.6927 56.5841 58.6465 55.9841 58.9696 55.5226L59.108 55.3842C59.5695 55.0611 60.1695 55.015 60.631 55.338Z" fill="#184861"/>
</g>
<defs>
<clipPath id="clip0_655_368">
<rect width="48" height="48" fill="white" transform="translate(16 16)"/>
</clipPath>
</defs>
</svg>
