<svg width="80" height="80" viewBox="0 0 80 80" fill="none" xmlns="http://www.w3.org/2000/svg">
<rect x="1" y="1" width="78" height="78" rx="39" fill="#F4FEC9"/>
<rect x="1" y="1" width="78" height="78" rx="39" stroke="#7DA907" stroke-width="2" stroke-linecap="round" stroke-dasharray="6 8"/>
<path d="M37.6967 33.8208C38.3417 33.7748 38.8944 34.2354 38.9405 34.8803C38.9866 35.5253 38.5259 36.078 37.881 36.1241H37.6967H35.4395C34.7946 36.1702 34.2418 35.7095 34.1958 35.0646C34.1497 34.4197 34.6104 33.8669 35.2553 33.8208H35.4395H37.6967ZM44.5605 33.8208C45.2054 33.7748 45.7582 34.2354 45.8042 34.8803C45.8503 35.5253 45.3896 36.078 44.7447 36.1241H44.5605H42.2572C41.6123 36.1702 41.0595 35.7095 41.0134 35.0646C40.9674 34.4197 41.428 33.8669 42.0729 33.8208H42.2572H44.5605ZM46.8637 38.3813C47.5086 38.3813 48.0154 38.888 48.0154 39.5329C48.0154 43.9552 44.4223 47.5483 40 47.5483C35.5777 47.5483 31.9846 43.9552 31.9846 39.5329C31.9846 38.888 32.4914 38.3813 33.1363 38.3813C33.7812 38.3813 34.2879 38.888 34.2879 39.5329C34.2879 42.6654 36.8676 45.2451 40 45.2451C43.1324 45.2451 45.7121 42.6654 45.7121 39.5329C45.7121 38.888 46.2188 38.3813 46.8637 38.3813ZM40 26.9571C33.0441 26.9571 27.4242 32.5771 27.4242 39.5329C27.4242 46.4888 33.0441 52.1088 40 52.1088C46.9559 52.1088 52.5758 46.4888 52.5758 39.5329C52.5758 32.5771 46.9559 26.9571 40 26.9571ZM40 24.6538C48.1996 24.6538 54.8791 31.3333 54.8791 39.5329C54.8791 47.7326 48.1996 54.4121 40 54.4121C31.8004 54.4121 25.1209 47.7326 25.1209 39.5329C25.1209 31.3333 31.8004 24.6538 40 24.6538ZM44.7447 18.3429C44.4223 18.3429 44.0998 18.4811 43.7774 18.6193L43.2246 18.8957L42.1651 19.4484C41.4741 19.863 40.737 20.0473 39.9539 20.0934C39.1248 20.0934 38.4338 19.817 37.3282 19.2642L36.6833 18.8957L36.1305 18.6193C35.8081 18.435 35.4395 18.2968 35.071 18.3429C34.7946 18.3889 34.4261 18.7114 33.9194 19.4484L33.3666 20.1855C32.6756 21.1068 32.1689 21.6596 31.4779 21.982C30.6488 22.3506 30.0038 22.3966 28.4376 22.3506H28.0691H27.4702C27.1017 22.3045 26.7332 22.3966 26.4107 22.5809C26.1344 22.8112 25.9962 23.2719 25.7658 24.5617L25.6737 25.0224C25.4434 26.2661 25.2591 26.865 24.7524 27.4638C24.2457 28.0627 23.6468 28.4773 22.5413 28.9379L21.7121 29.3064L21.1593 29.5828C20.8369 29.721 20.5605 29.9053 20.3301 30.2277C20.238 30.4581 20.238 30.8266 20.4223 31.6097L20.7447 32.8074C21.0672 33.959 21.1132 34.604 20.929 35.341C20.7447 36.078 20.3301 36.723 19.547 37.5982L19.1785 38.0589L18.81 38.5195C18.5336 38.7959 18.3493 39.1644 18.3033 39.5329C18.3033 39.8554 18.5336 40.27 19.1324 40.9149L19.7313 41.6059C20.3762 42.2047 20.8369 42.9879 21.0672 43.8631C21.2514 44.7383 21.1593 45.4293 20.7447 46.8573L20.5605 47.5944C20.3762 48.3775 20.3301 48.7 20.4683 48.9763C20.6065 49.2527 20.975 49.4831 21.8042 49.8516L22.6334 50.2201C23.4626 50.4965 24.2457 51.0032 24.7985 51.6481C25.3052 52.247 25.5355 52.984 25.7198 54.0896L25.858 54.9649C26.0422 55.8862 26.1804 56.3007 26.4107 56.485C26.7332 56.6693 27.1017 56.7614 27.4702 56.7153H28.0691L28.8983 56.6693C30.142 56.6232 30.7869 56.6693 31.524 57.0378C32.261 57.4063 32.7217 57.913 33.4127 58.8343L33.9655 59.5714C34.5182 60.3084 34.8407 60.6309 35.1631 60.677C35.5317 60.677 35.9002 60.5848 36.2226 60.4006L36.7754 60.1242L37.8349 59.5714C38.5259 59.1568 39.263 58.9725 40.0461 58.9265C40.8752 58.9265 41.5662 59.2029 42.6718 59.7557L43.3628 60.1242L43.9155 60.4006C44.238 60.5848 44.6065 60.677 44.975 60.677C45.2054 60.6309 45.4357 60.4466 45.8042 59.9399L46.1727 59.4793L46.7255 58.7422C47.4165 57.7748 47.8772 57.3603 48.5681 56.9917C49.2591 56.6693 50.0422 56.5311 50.7793 56.6232L52.023 56.6693H52.6219C52.9904 56.7153 53.3589 56.6232 53.6814 56.4389C53.9117 56.2086 54.0499 55.9322 54.096 55.6558L54.2342 55.1491L54.5106 53.629C54.6027 52.8919 54.9251 52.1549 55.3858 51.556C55.8004 51.0493 56.3071 50.6808 56.8599 50.4044L57.5509 50.0819L58.334 49.7595L58.8868 49.5291C59.4395 49.2527 59.6699 49.0685 59.762 48.8842C59.8541 48.7 59.8541 48.2854 59.6699 47.5023L59.3474 46.3046C59.0249 45.1529 58.9789 44.508 59.1631 43.771C59.3474 43.0339 59.7159 42.389 60.499 41.5138L61.2361 40.6846C61.7428 40.0857 61.9271 39.7172 61.9271 39.4408C61.9271 39.1644 61.6967 38.7038 61.0979 38.0589L60.499 37.3679C59.762 36.4926 59.3474 35.8938 59.1631 35.1107C58.9789 34.2354 59.071 33.5444 59.4856 32.1164L59.6699 31.3794C59.8541 30.5963 59.8541 30.2277 59.762 29.9974C59.6699 29.7671 59.2553 29.4907 58.4261 29.1222L57.5969 28.7536C56.5374 28.293 55.8925 27.9245 55.4319 27.2796C54.8791 26.5886 54.6948 25.9437 54.4184 24.3774L54.3724 24.0089L54.2342 23.4101C54.1881 23.0415 54.0499 22.673 53.7735 22.3966C53.5432 22.2584 53.2207 22.1663 52.9443 22.1663H52.4376H51.7466L50.6411 22.3966C49.858 22.4888 49.1209 22.3506 48.4299 22.0281C47.6468 21.6596 47.1862 21.1529 46.3109 19.9091L45.8503 19.3102C45.3896 18.6653 45.0672 18.435 44.8369 18.3889L44.7447 18.3429ZM42.2111 16.8227C43.6392 16.0857 44.3301 15.8553 45.3436 16.0857C46.4491 16.316 47.048 16.9148 48.1536 18.4811L48.3839 18.8496L48.7063 19.3102L48.9827 19.6327C49.1209 19.7709 49.2591 19.863 49.3973 19.9552C49.8119 20.0934 50.2265 20.1394 50.6411 20.0934L51.7466 20.0473H52.4837C53.6353 20.0473 54.2342 20.2316 54.9251 20.7843C55.6161 21.3371 55.9846 22.0281 56.261 23.364L56.5374 24.8381L56.6296 25.3448C56.6756 25.6212 56.7677 25.8515 56.952 26.0358C57.1823 26.2661 57.4127 26.4504 57.6891 26.5425L58.2418 26.7728L59.1171 27.1414C60.453 27.6941 61.19 28.2009 61.6507 29.1222C62.1574 30.1356 62.0192 30.9187 61.5125 32.7613L61.3282 33.4523C61.19 33.8669 61.144 34.2815 61.19 34.6961C61.3743 35.1567 61.6507 35.5713 62.0192 35.9398L62.618 36.5848C63.5393 37.6903 64 38.4734 64 39.4869C64 40.5003 63.6775 41.0992 62.8484 42.1126L61.7889 43.3103C61.5125 43.5867 61.2822 43.9552 61.144 44.3237C61.0979 44.7383 61.144 45.1529 61.2822 45.5675L61.6046 46.6731C62.0192 48.1932 62.0653 48.9763 61.6046 49.8977C61.0979 50.9111 60.4069 51.3718 58.6564 52.0627L58.0115 52.3391L57.5509 52.5695C57.0441 52.7537 56.7217 53.2144 56.6296 53.7211L56.5374 54.2278L56.261 55.7019C55.9846 57.0378 55.7083 57.6827 54.9251 58.2816C54.0499 58.9725 53.2668 59.0647 51.3321 58.9725H50.9635H50.3647C50.0422 58.9725 49.6737 59.0186 49.3512 59.1107C49.0749 59.295 48.8445 59.4793 48.6603 59.7557L48.3378 60.2163L47.8772 60.8612C46.9559 62.1511 46.357 62.6578 45.3436 62.8881C44.238 63.1184 43.501 62.842 41.8426 61.9207L41.2438 61.5983C40.8752 61.3679 40.4607 61.2297 40.0461 61.1837C39.4933 61.2758 38.9866 61.4601 38.5259 61.7365L37.7889 62.1511C36.3608 62.8881 35.6699 63.1184 34.6564 62.8881C33.643 62.6578 32.9981 62.0589 32.1228 60.8612L31.3858 59.8478C31.1555 59.5253 30.8791 59.2489 30.5566 59.0186C30.2342 58.8804 29.9117 58.8343 29.5432 58.8804H28.9904L28.1612 58.9265C26.595 58.9725 25.8119 58.8804 25.0288 58.2355C24.2457 57.5906 23.9232 56.7614 23.6468 55.3334L23.4626 54.4581C23.4165 53.9514 23.2783 53.4447 23.0019 53.0301C22.6334 52.7076 22.1727 52.4313 21.7121 52.2931L20.8829 51.9245C19.547 51.3717 18.81 50.865 18.3493 49.9437C17.8426 48.9303 17.9808 48.1472 18.4875 46.3046L18.5797 45.89L18.7179 45.3372C18.81 45.0147 18.856 44.6923 18.81 44.3237C18.6257 43.8631 18.3493 43.4024 17.9808 43.08L17.382 42.389C16.4607 41.2834 16 40.5003 16 39.4869C16 38.3352 16.4607 37.6443 17.7044 36.2162L18.1651 35.6635C18.4415 35.3871 18.6718 35.0185 18.81 34.65C18.856 34.2354 18.81 33.8208 18.6718 33.4063L18.3493 32.3007C17.9347 30.7805 17.8887 29.9974 18.3493 29.0761C18.81 28.1548 19.547 27.6481 20.8829 27.0953L21.7121 26.7268C22.1727 26.5886 22.6334 26.3122 23.0019 25.9437C23.2322 25.5751 23.3704 25.1605 23.4165 24.746L23.6008 23.6865L23.739 22.9494C24.0154 21.8438 24.2917 21.2911 24.9827 20.7383C25.858 20.0473 26.6871 19.9552 28.5758 20.0473L28.9904 20.0934H29.5893C29.9117 20.1394 30.2802 20.0473 30.6027 19.9552C31.0173 19.6788 31.3858 19.3102 31.6161 18.8957L32.1689 18.1586C32.9981 17.007 33.6891 16.3621 34.7025 16.1317C35.8081 15.9014 36.499 16.1317 38.2035 17.0991L38.8023 17.4216C39.1708 17.6519 39.5854 17.7901 40 17.8362C40.5528 17.744 41.0595 17.5598 41.5202 17.2834L42.2111 16.8227Z" fill="#203003"/>
</svg>
