<svg width="80" height="80" viewBox="0 0 80 80" fill="none" xmlns="http://www.w3.org/2000/svg">
<rect x="1" y="1" width="78" height="78" rx="39" fill="#D0F6FD"/>
<rect x="1" y="1" width="78" height="78" rx="39" stroke="#0D84AD" stroke-width="2" stroke-linecap="round" stroke-dasharray="4 12 12 16"/>
<path d="M32.7003 24.992L32.51 25.2774C32.3198 25.6104 32.1295 25.9433 31.9392 26.2763C30.8928 28.1314 30.322 30.2243 30.2744 32.3648C30.322 34.5053 30.8928 36.5983 31.9392 38.4534C32.1295 38.7864 32.3198 39.1193 32.51 39.4523L32.7003 39.7377L33.0333 39.2145L33.4614 38.4534C34.5078 36.5983 35.0786 34.5053 35.1262 32.3648C35.0786 30.2243 34.5078 28.1314 33.4614 26.2763C33.2711 25.9433 33.0808 25.6104 32.8906 25.2774L32.7003 24.992ZM22.3783 28.8925V29.0352C22.4259 29.9865 22.521 30.9378 22.6637 31.8892L22.8064 32.7929C23.1394 34.6005 23.6151 35.9799 24.2334 36.7885C25.1372 37.9301 26.2788 38.8339 27.6107 39.4047C28.4193 39.7853 29.2755 40.0707 30.1317 40.2609L30.0841 40.0231L29.8463 39.595C28.7998 37.6923 28.1815 35.6469 27.9436 33.4589L27.9912 33.554C27.3253 32.0794 26.2312 30.7951 24.8042 29.9865C24.1383 29.5584 23.4248 29.2254 22.6637 28.94L22.3783 28.8925ZM43.0223 28.8925L42.7369 28.9876C42.1661 29.1779 41.6428 29.4157 41.1196 29.7011L40.5964 29.9865C39.2169 30.7951 38.1229 31.9843 37.457 33.4589C37.2667 35.5994 36.6008 37.6923 35.5543 39.595C35.4592 39.7853 35.3165 40.0231 35.2213 40.2134C36.0775 40.0231 36.9337 39.7377 37.7424 39.3572C39.0742 38.7864 40.2634 37.8826 41.1196 36.741C41.738 35.9323 42.2136 34.5529 42.5466 32.7454C42.6893 31.8416 42.832 30.9378 42.9271 29.9865L43.0223 28.8925ZM32.6052 42.9722H32.6527L32.1771 42.9247L31.5111 42.8771L30.7501 42.782C29.3231 42.5441 27.9436 42.116 26.6593 41.5452C24.9945 40.7842 23.5199 39.6426 22.3783 38.2155C21.5221 37.0739 20.9038 35.3615 20.5232 33.2686C20.2854 31.9367 20.1427 30.6049 20.0476 29.2254L20 28.4644V27.6082V27.4179C20 26.752 20.5232 26.2287 21.1892 26.2287C21.2367 26.2287 21.3319 26.2287 21.3794 26.2287L21.6173 26.2763L22.1881 26.419C22.4259 26.4666 22.6637 26.5617 22.9016 26.6093C24.0432 26.9422 25.0896 27.4655 26.1361 28.0838C26.8972 28.5595 27.6107 29.1303 28.2766 29.7487C28.895 27.0374 30.1317 24.4688 31.8917 22.2807C32.3198 21.805 33.0808 21.7099 33.5565 22.138C33.6041 22.1856 33.6516 22.2331 33.6992 22.2807C34.4603 23.1845 35.1262 24.1834 35.6494 25.2298C36.4105 26.6568 36.9813 28.1314 37.3143 29.7011C37.9326 29.0352 38.6937 28.5119 39.4548 28.0363C40.4537 27.4179 41.5477 26.9422 42.6893 26.5617C42.9747 26.4666 43.2125 26.419 43.4028 26.3714L43.9736 26.2287L44.2114 26.1812C44.8774 26.086 45.4482 26.5141 45.5909 27.1325C45.5909 27.1801 45.5909 27.2752 45.5909 27.3228V27.7984L45.5433 28.7973C45.5433 28.94 45.5433 29.0827 45.5433 29.1779C45.4482 30.5097 45.3055 31.8892 45.0676 33.221C44.6871 35.314 44.0687 37.0264 43.2125 38.168C42.0709 39.595 40.5964 40.7842 38.9315 41.4977C37.5997 42.0685 36.2202 42.4966 34.7932 42.7344C34.1749 42.8295 33.5565 42.9247 32.9857 42.9247H32.7954L32.6052 42.9722ZM40.6439 16.0019C49.4914 16.0019 56.7215 22.9942 57.0069 31.794V32.0794L61.2403 41.2598L61.3355 41.7355V43.1625C61.3355 43.7333 60.9074 44.209 60.3366 44.3517H60.1463H57.0069V49.6791C57.0545 52.6283 54.7713 55.0542 51.8697 55.2444H51.4891H48.3497V62.76C48.3497 63.3308 47.9692 63.8065 47.3984 63.9492H47.1606C46.5898 63.9492 46.1141 63.5211 45.9714 62.9503V62.76V55.2444H44.9725C44.3066 55.292 43.7358 54.8163 43.6882 54.1504C43.6406 53.4845 44.1163 52.9137 44.7822 52.8661H44.9725H47.0654H47.1606H51.4891C53.1064 52.8661 54.4383 51.6294 54.6286 50.0597V49.7267V43.2101C54.6286 42.6393 55.0567 42.1636 55.6275 42.0209H55.8177H58.9571L54.7713 32.8405L54.6761 32.3648C54.6761 24.6115 48.4449 18.3802 40.6915 18.3327H40.6439C38.0753 18.3327 35.5067 19.0462 33.3187 20.4256C32.7479 20.7586 32.0344 20.5207 31.7014 19.9499C31.416 19.4267 31.5587 18.7608 32.0819 18.3802C34.6505 16.8105 37.5997 15.9543 40.6439 16.0019ZM30.1793 44.9225C31.6538 48.49 32.3673 50.9159 32.4625 53.4845V54.0553V62.7124C32.51 63.3784 32.0344 63.9492 31.3684 63.9967C30.7025 64.0443 30.1317 63.5686 30.0841 62.9027V62.7124V54.0553C30.0841 51.6294 29.4658 49.3937 27.9912 45.8262C27.7058 45.2554 27.9436 44.5419 28.562 44.2565C29.1328 43.9711 29.8463 44.209 30.1317 44.8273C30.1317 44.8273 30.1317 44.8749 30.1793 44.9225Z" fill="#184861"/>
</svg>
