<svg width="80" height="80" viewBox="0 0 80 80" fill="none" xmlns="http://www.w3.org/2000/svg">
<rect x="1" y="1" width="78" height="78" rx="39" fill="#D0F6FD"/>
<rect x="1" y="1" width="78" height="78" rx="39" stroke="#0D84AD" stroke-width="2" stroke-linecap="round" stroke-dasharray="4 12 12 16"/>
<g clip-path="url(#clip0_655_358)">
<path d="M56.6154 18.3077H23.3846V31.2308H56.6154V18.3077ZM57.7692 16C58.4154 16 58.9231 16.5077 58.9231 17.1538V32.3846C58.9231 33.0308 58.4154 33.5385 57.7692 33.5385H22.2308C21.5846 33.5385 21.0769 33.0308 21.0769 32.3846V17.1538C21.0769 16.5077 21.5846 16 22.2308 16H57.7692ZM40 35.0154C40.5538 35.0154 41.0154 35.3846 41.1538 35.9385V36.1231V41.2923H57.7692C58.3231 41.2923 58.7846 41.6615 58.9231 42.2154V42.4V48.7692C58.9692 49.4154 58.5077 49.9692 57.8615 50.0154C57.2154 50.0615 56.6615 49.6 56.6154 48.9538V48.7692V43.6462H41.2V48.8154C41.2462 49.4615 40.7846 50.0154 40.1385 50.0615C39.4923 50.1077 38.9385 49.6462 38.8923 49V48.8154V43.6462H23.3846V48.8154C23.3846 49.3692 23.0154 49.8308 22.4615 49.9692H22.2308C21.6769 49.9692 21.2154 49.6 21.0769 49.0462V48.8615V42.4923C21.0769 41.9385 21.4462 41.4769 22 41.3385H22.2308H38.8462V36.1692C38.8923 35.5692 39.4 35.0154 40 35.0154ZM57.7692 53.8462C55.6 53.8462 53.8462 55.6 53.8462 57.7692C53.8462 59.9385 55.6 61.6923 57.7692 61.6923C59.9385 61.6923 61.6923 59.9385 61.6923 57.7692C61.6923 55.6 59.9385 53.8462 57.7692 53.8462ZM40 53.8462C37.8308 53.8462 36.0769 55.6 36.0769 57.7692C36.0769 59.9385 37.8308 61.6923 40 61.6923C42.1692 61.6923 43.9231 59.9385 43.9231 57.7692C43.9231 55.6 42.1692 53.8462 40 53.8462ZM22.2308 53.8462C20.0615 53.8462 18.3077 55.6 18.3077 57.7692C18.3077 59.9385 20.0615 61.6923 22.2308 61.6923C24.4 61.6923 26.1538 59.9385 26.1538 57.7692C26.1538 55.6 24.4 53.8462 22.2308 53.8462ZM57.7692 51.5385C61.2308 51.5385 64 54.3077 64 57.7692C64 61.2308 61.2308 64 57.7692 64C54.3077 64 51.5385 61.2308 51.5385 57.7692C51.5385 54.3077 54.3538 51.5385 57.7692 51.5385ZM40 51.5385C43.4615 51.5385 46.2308 54.3077 46.2308 57.7692C46.2308 61.2308 43.4615 64 40 64C36.5385 64 33.7692 61.2308 33.7692 57.7692C33.7692 54.3077 36.5846 51.5385 40 51.5385ZM22.2308 51.5385C25.6923 51.5385 28.4615 54.3077 28.4615 57.7692C28.4615 61.2308 25.6923 64 22.2308 64C18.7692 64 16 61.2308 16 57.7692C16 54.3077 18.8154 51.5385 22.2308 51.5385Z" fill="#184861"/>
</g>
<defs>
<clipPath id="clip0_655_358">
<rect width="48" height="48" fill="white" transform="translate(16 16)"/>
</clipPath>
</defs>
</svg>
