<svg width="80" height="80" viewBox="0 0 80 80" fill="none" xmlns="http://www.w3.org/2000/svg">
<rect x="1" y="1" width="78" height="78" rx="39" fill="#F4FEC9"/>
<rect x="1" y="1" width="78" height="78" rx="39" stroke="#7DA907" stroke-width="2" stroke-linecap="round" stroke-dasharray="6 8"/>
<g clip-path="url(#clip0_655_346)">
<path d="M34.5638 31.9525C34.2789 31.9525 34.089 32.1424 34.089 32.4273C34.089 32.7122 34.2789 32.9021 34.5638 32.9021C34.8486 32.9021 35.0386 32.7122 35.0386 32.4273C35.0386 32.1424 34.8486 31.9525 34.5638 31.9525ZM34.5638 30.5282C35.6083 30.5282 36.4629 31.3828 36.4629 32.4273C36.4629 33.4718 35.6083 34.3264 34.5638 34.3264C33.5193 34.3264 32.6647 33.4718 32.6647 32.4273C32.6647 31.3828 33.4718 30.5282 34.5638 30.5282C34.5638 30.4807 34.5638 30.4807 34.5638 30.5282ZM34.5638 30.0059C33.2344 30.0059 32.1424 31.0979 32.1424 32.4273C32.1424 33.7567 33.2344 34.8487 34.5638 34.8487C35.8932 34.8487 36.9851 33.7567 36.9851 32.4273C36.9851 32.2849 36.9851 32.1899 36.9377 32.0475C36.7003 31.9525 36.5104 31.7626 36.3679 31.5252C36.2255 31.2878 36.178 31.003 36.273 30.7181C35.8457 30.2433 35.2285 29.9585 34.5638 30.0059ZM46.908 29.4362L44.4866 36.273V37.5074C44.4866 37.8872 44.2967 38.2671 43.9644 38.5045H49.8991C49.6142 38.3145 49.4243 38.0297 49.3768 37.7448V37.5549V36.273L46.908 29.4362ZM50.6112 40.8783H43.1572L43.2047 41.0208C43.6795 42.4451 45.0089 43.4896 46.5282 43.5846H46.8605C48.5222 43.632 49.994 42.5875 50.5163 41.0208L50.6112 40.8783ZM22.2671 42.5401L19.8457 47.905V48.3798C19.8457 48.7596 19.6558 49.1395 19.3234 49.3769H25.2582C24.9733 49.1869 24.7834 48.9021 24.7359 48.6172V48.4273V47.9525L22.2671 42.5401ZM25.9703 51.7507H18.5163L18.5638 51.8932C19.0386 53.3175 20.3679 54.362 21.8872 54.457H22.2196C23.8813 54.5045 25.3531 53.4599 25.8754 51.8932L25.9703 51.7507ZM34.8486 37.2226H34.5638H34.2789V58.0653H34.8012V37.2226H34.8486ZM41.1157 60.4392H28.0593C27.6795 60.4392 27.3472 60.5816 27.0148 60.819L26.8724 60.9614H42.3026L42.1602 60.819C41.9228 60.6291 41.638 60.4866 41.3531 60.4392H41.1157ZM46.908 24.6884H47.0029H47.0979C47.4302 24.7359 47.7626 24.9258 47.9525 25.2582L48 25.3531L48.0475 25.4481L51.7032 35.6558L51.7507 36.0356V37.4599C51.7507 37.8872 51.5608 38.2671 51.2285 38.457H52.0356C52.7003 38.457 53.2225 38.9792 53.2225 39.6439C53.2225 43.1098 50.4213 45.911 46.9555 45.911C43.4896 45.911 40.6884 43.1098 40.6884 39.6439C40.6884 38.9792 41.2107 38.457 41.8753 38.457H42.6825C42.3976 38.2671 42.2077 37.9822 42.1602 37.6973V37.5074V36.0831L42.2552 35.7033L44.819 28.4392L39.3116 31.3828C39.359 31.6202 39.4065 31.8576 39.4065 32.1424V32.4748C39.4065 34.089 38.5994 35.6083 37.2225 36.5104V58.1128H41.1157C43.2047 58.1602 44.9614 59.7745 45.1988 61.8635V62.1958C45.1988 62.7656 44.7715 63.2404 44.2018 63.3828H44.0118H25.1632C24.4985 63.3828 23.9763 62.8605 23.9763 62.1958C24.0237 60.1068 25.638 58.3502 27.727 58.1128H28.0593H31.9525V36.4154C31.6676 36.2255 31.4303 36.0356 31.1929 35.7982L23.7863 40.1662L26.9673 47.1454L27.0623 47.6202V48.3323C27.0623 48.7122 26.8724 49.092 26.54 49.3294H27.3472C28.0119 49.3294 28.5341 49.8516 28.5341 50.5163C28.5341 53.9822 25.7329 56.7834 22.2671 56.7834C18.8012 56.7834 16 53.9822 16 50.5163C16 49.8516 16.5223 49.3294 17.1869 49.3294H17.9941C17.7092 49.1395 17.5193 48.9021 17.4718 48.5697V48.3798V47.6677L17.5668 47.1929L21.1751 39.2166V39.1691L21.2225 39.0742L21.1276 39.2166C21.1751 39.1217 21.2225 39.0267 21.27 38.9792L21.3175 38.9318C21.4125 38.8368 21.5074 38.7418 21.6498 38.6469L29.911 33.8042C29.7685 33.3769 29.7211 32.9021 29.7211 32.4273C29.7211 29.7685 31.905 27.632 34.5638 27.632C35.9406 27.632 37.2225 28.2493 38.1721 29.2463L46.2433 24.8783C46.2908 24.8309 46.3857 24.7834 46.4807 24.7834L46.3383 24.8783C46.3857 24.8309 46.4807 24.8309 46.5282 24.7834L46.6231 24.7359H46.7181H46.7656H46.908V24.6884ZM42.54 16C51.3709 16 58.635 23.0267 58.9198 31.8576V32.1424L63.1454 41.3531L63.2403 41.8279V43.2997C63.2403 43.8694 62.8605 44.3442 62.2908 44.4866H62.1008H58.9198V49.8042C58.9198 52.7003 56.6884 55.1217 53.7448 55.3116H53.365H50.1839V62.8131C50.1839 63.3828 49.8041 63.8576 49.2344 64H49.0445C48.4748 64 48 63.6202 47.8575 63.0504V62.8605V55.3591H46.908C46.2433 55.4065 45.6736 54.9318 45.6261 54.2671C45.5786 53.6024 46.0534 53.0326 46.7181 52.9852H46.908H53.4124C55.0267 52.9852 56.4035 51.7507 56.546 50.1365V49.8516V43.2997C56.546 42.73 56.9733 42.2552 57.543 42.1128H57.7329H60.9139L56.6884 32.9496L56.5934 32.4748C56.451 24.7359 50.0415 18.5638 42.3026 18.7062C34.7537 18.8487 28.6765 24.9258 28.5341 32.4748C28.5341 33.1395 28.0119 33.6617 27.3472 33.6617C26.6825 33.6617 26.1602 33.1395 26.1602 32.4748C26.1128 23.4065 33.4718 16.0475 42.54 16Z" fill="#203003"/>
</g>
<defs>
<clipPath id="clip0_655_346">
<rect width="48" height="48" fill="white" transform="translate(16 16)"/>
</clipPath>
</defs>
</svg>
