<svg width="80" height="80" viewBox="0 0 80 80" fill="none" xmlns="http://www.w3.org/2000/svg">
<rect x="1" y="1" width="78" height="78" rx="39" fill="#F4FEC9"/>
<rect x="1" y="1" width="78" height="78" rx="39" stroke="#7DA907" stroke-width="2" stroke-linecap="round" stroke-dasharray="6 8"/>
<path d="M39.2846 22.9858H37.5071V25.0669H39.2846C39.8483 25.0669 40.3252 24.6333 40.3685 24.0697C40.3685 23.5494 40.0217 23.1159 39.5014 23.0292L39.2846 22.9858ZM39.2846 27.2346H37.2903C36.9001 28.015 36.1197 28.5786 35.2526 28.622C34.5589 28.6653 33.8653 28.4919 33.2583 28.0584C33.2583 28.1017 33.2583 28.1884 33.2583 28.2318C33.2583 28.752 33.6485 29.1856 34.1254 29.2289H34.2988H39.2846H39.4581C40.0217 29.1422 40.4119 28.622 40.3252 28.0584C40.2385 27.6248 39.8916 27.278 39.4581 27.1913L39.2846 27.2346ZM39.2846 31.4834H34.2988C33.7352 31.4834 33.2583 31.9169 33.2149 32.4806C33.2149 33.0008 33.5618 33.4344 34.082 33.5211H34.2555H39.2413C39.8049 33.5211 40.2818 33.0875 40.3252 32.5239C40.3252 32.0037 39.9783 31.5701 39.4581 31.4834H39.2846ZM46.9151 29.4457C47.392 29.6625 47.6088 30.2261 47.4787 30.703L47.392 30.8764L45.2676 35.1252C45.0075 35.6455 44.3572 35.9056 43.8369 35.6455C43.36 35.4287 43.0999 34.8651 43.2733 34.3448L43.36 34.1714L45.4844 29.9226C45.7445 29.4024 46.3949 29.1856 46.9151 29.4457ZM39.2846 35.7322H34.2988C33.7352 35.6888 33.2149 36.1224 33.2149 36.686C33.2149 37.2496 33.6051 37.7699 34.1687 37.7699C34.2121 37.7699 34.2555 37.7699 34.2988 37.7699H39.2846C39.8483 37.8132 40.3685 37.3797 40.3685 36.8161C40.3685 36.2524 39.9783 35.7322 39.4147 35.7322C39.3714 35.7322 39.328 35.7322 39.2846 35.7322ZM51.6842 34.1714C51.9443 34.6483 51.8142 35.2119 51.3807 35.5154L51.2073 35.6021L46.9151 37.7265C46.3949 37.9866 45.7445 37.7699 45.4844 37.2496C45.2676 36.7727 45.3977 36.2091 45.7879 35.9056L45.9613 35.8189L50.2535 33.6945C50.7737 33.4344 51.424 33.6511 51.6842 34.1714ZM33.6051 18C35.3393 18 36.8568 19.1706 37.3337 20.8181H39.328C41.1056 20.8181 42.5363 22.2488 42.5363 24.0263C42.5363 24.8067 42.2328 25.5438 41.7125 26.1507C42.7964 27.3647 42.7964 29.1856 41.7125 30.3995C42.7964 31.6135 42.7964 33.4344 41.7125 34.6483C42.2328 35.2119 42.5363 35.9923 42.5363 36.7727C42.5363 38.5503 41.1056 39.981 39.328 39.981H21.4657C21.3357 39.981 21.2489 39.981 21.1189 39.9376L20.9888 39.8943L19.7749 39.2873H17.1736C16.6533 39.2873 16.2198 38.9405 16.0897 38.4202V38.2468C16.0897 37.7265 16.4365 37.293 16.9568 37.1629H17.1736H20.035C20.1651 37.1629 20.2518 37.1629 20.3818 37.2063L20.5119 37.293L21.7258 37.8566H31.264C30.8738 36.7727 31.1339 35.5588 31.8709 34.6917C30.7871 33.4777 30.7871 31.6568 31.8709 30.4429C31.3507 29.8359 31.0905 29.0989 31.0905 28.3185C31.0905 27.5815 31.3507 26.8878 31.8276 26.2808V26.3242C31.6975 26.064 31.6108 25.8473 31.4807 25.5871L31.3507 25.1536H28.6193C28.099 25.1536 27.6655 24.8067 27.5354 24.2865V24.1131C27.5354 23.5928 27.8823 23.1592 28.4025 23.0292H28.5759H31.0472V21.9887C31.0038 21.3817 31.4374 20.8614 32.0443 20.8181C32.6513 20.7747 33.1716 21.2083 33.2149 21.8152V21.9887V23.9396V24.0263C33.345 24.4599 33.4751 24.8934 33.6918 25.327C34.1254 26.1507 34.5589 26.5409 35.0358 26.4976C35.1659 26.4976 35.2526 26.4109 35.296 26.2808V26.1941V22.2921C35.296 21.0782 34.6457 20.2978 33.7352 20.1677H33.5184H26.5816C26.4082 20.1677 26.1914 20.2111 26.0614 20.3412L25.8879 20.4712L21.379 24.9368C20.8587 25.4137 20.2084 25.7605 19.4714 25.8039H19.1679H17.1736C16.5666 25.8473 16.0463 25.4137 16.003 24.8067C15.9596 24.1998 16.3932 23.6795 17.0002 23.6361H17.2169H19.2113C19.3847 23.6361 19.6015 23.5928 19.7749 23.5061L19.9049 23.376L24.4139 18.9105C24.9341 18.3902 25.5844 18.0867 26.3215 18H26.625H33.6051ZM34.5589 41.9319C34.7757 42.4089 34.6457 42.9725 34.2555 43.276L34.082 43.3627L29.7899 45.4871C29.2696 45.7472 28.6193 45.5738 28.3158 45.0102C28.0557 44.5332 28.2291 43.9263 28.6627 43.6228L28.8361 43.5361L33.1282 41.4117C33.6485 41.1949 34.2988 41.4117 34.5589 41.9319ZM42.4929 44.2298H40.7154C40.1517 44.2298 39.6748 44.6633 39.6315 45.2269C39.6315 45.7472 39.9783 46.1807 40.4986 46.2674H40.672H42.4496V44.2298H42.4929ZM36.2064 43.5794C36.6833 43.7962 36.9001 44.3598 36.7701 44.8367L36.6833 45.0102L34.5589 49.2589C34.2988 49.7792 33.6485 49.996 33.0849 49.7358C32.608 49.5191 32.3912 48.9555 32.5213 48.4786L32.608 48.3051L34.7324 44.0563C35.0358 43.5361 35.6862 43.3193 36.2064 43.5794ZM42.7097 48.4786H40.672C40.1084 48.4786 39.6315 48.9555 39.6315 49.5191C39.6315 50.0393 39.9783 50.4295 40.4986 50.5596H40.672H45.7445H45.918C46.4382 50.4729 46.7851 50.0393 46.7851 49.5191C46.7851 49.4757 46.7851 49.389 46.7851 49.3457C46.2214 49.7792 45.5278 49.9526 44.7907 49.9093C43.9236 49.7792 43.1432 49.2589 42.7097 48.4786ZM45.6578 52.684H40.7154H40.5419C39.9783 52.7707 39.5881 53.291 39.6748 53.8546C39.7615 54.2881 40.1084 54.635 40.5419 54.7217H40.7154H45.7445C46.3082 54.7217 46.7851 54.2881 46.7851 53.6812C46.7851 53.1609 46.4382 52.7273 45.918 52.6406H45.7445L45.6578 52.684ZM45.6578 56.9328H40.7154C40.1517 56.8894 39.6315 57.323 39.6315 57.8866C39.5881 58.4502 40.0217 58.9705 40.5853 58.9705C40.6286 58.9705 40.672 58.9705 40.7154 58.9705H45.7012C46.2648 59.0138 46.7851 58.5803 46.7851 58.0167C46.8284 57.453 46.3949 56.9328 45.8312 56.9328C45.7879 56.9328 45.7445 56.9328 45.7012 56.9328H45.6578ZM53.4184 39.2006C54.1554 39.2006 54.8491 39.4607 55.4127 39.8943L55.6295 40.111L60.1384 44.5766C60.2685 44.7067 60.4419 44.7934 60.6153 44.8367H60.7887H62.7831C63.39 44.7934 63.9103 45.2269 63.9537 45.8339C63.997 46.4409 63.5635 46.9611 62.9565 47.0045H62.7831H60.7887C60.0517 47.0045 59.358 46.7444 58.7944 46.3108L58.5776 46.094L54.0687 41.6285C53.9386 41.4984 53.7652 41.4117 53.5918 41.3683H53.4184H46.4382C45.4844 41.3683 44.7907 42.062 44.6607 43.1892V43.4927V47.3513V47.438C44.704 47.5681 44.7907 47.6548 44.9208 47.6548C45.3977 47.6982 45.8312 47.308 46.2648 46.4842C46.4816 46.0507 46.655 45.5738 46.7851 45.0969V43.1025C46.7417 42.4956 47.1753 41.9753 47.7822 41.9319C48.3892 41.8886 48.9095 42.3221 48.9528 42.9291V43.1025V44.1431H51.424C52.031 44.0997 52.5513 44.5333 52.5946 45.1402C52.638 45.7472 52.2044 46.2675 51.5975 46.3108H51.424H48.6927L48.6493 46.3975C48.5626 46.6143 48.4759 46.8744 48.3458 47.1345L48.1724 47.4814C49.1696 48.6953 49.1262 50.4729 48.0857 51.6435C49.1696 52.8574 49.1696 54.6783 48.0857 55.8923C48.8661 56.7593 49.0829 57.9733 48.736 59.0572H58.2741L59.4881 58.4502C59.5748 58.4068 59.7049 58.3635 59.7916 58.3635H59.965H62.8264C63.4334 58.3201 63.9537 58.7537 63.997 59.3606C64.0404 59.9676 63.6068 60.4879 62.9998 60.5312H62.8264H60.2251L59.0112 61.1382C58.9245 61.1816 58.7944 61.2249 58.7077 61.2249H58.5343H40.7154C38.9378 61.2249 37.5071 59.7942 37.5071 58.0167C37.5071 57.2363 37.8106 56.4992 38.3308 55.8923C37.247 54.6783 37.247 52.8574 38.3308 51.6435C37.247 50.4295 37.247 48.6086 38.3308 47.3947C37.8106 46.7877 37.5071 46.0507 37.5504 45.2703C37.5504 43.6228 38.8077 42.2354 40.4552 42.062H40.7587H42.753C43.1866 40.5012 44.5306 39.374 46.1347 39.2439H46.4382L53.4184 39.2006Z" fill="#203003"/>
</svg>
