<svg width="80" height="80" viewBox="0 0 80 80" fill="none" xmlns="http://www.w3.org/2000/svg">
<rect x="1" y="1" width="78" height="78" rx="39" fill="#D0F6FD"/>
<rect x="1" y="1" width="78" height="78" rx="39" stroke="#0D84AD" stroke-width="2" stroke-linecap="round" stroke-dasharray="4 12 12 16"/>
<path d="M52.2852 22.1938C49.9598 22.1938 47.6782 23.0274 45.9671 24.6069L45.6161 24.9579L45.5722 25.0018L40.7898 29.7843L36.6654 33.9086L36.5338 33.9963C36.4461 34.128 36.3583 34.3035 36.3583 34.479V34.6545C36.3583 35.2249 36.7532 35.6636 37.2797 35.7514H37.4552C37.7185 35.7514 37.9378 35.6636 38.1572 35.532L38.2888 35.4004L41.5795 32.1097C42.0183 31.6709 42.7203 31.6709 43.1152 32.1097C43.4662 32.5046 43.5539 33.0749 43.2468 33.5137L43.1152 33.6453L40.9214 35.883L40.7898 36.0146L31.9269 44.8775L31.8391 45.0091C31.7514 45.1408 31.6636 45.3163 31.6636 45.4918V45.6673C31.6636 46.2376 32.0585 46.6764 32.585 46.7642H32.7605C33.0238 46.7642 33.2431 46.6764 33.4625 46.5448L33.5942 46.4131L42.4132 37.5941C42.8519 37.1554 43.5539 37.1554 43.9488 37.5941C44.0366 37.6819 44.1243 37.7696 44.1682 37.9013C44.3437 38.2523 44.3437 38.691 44.0804 39.042L43.9488 39.1737L35.1298 48.0365L35.0859 48.0804L34.9982 48.1682C34.9104 48.2998 34.8227 48.4753 34.8227 48.6508V48.8263C34.8227 49.3967 35.2175 49.8354 35.7441 49.9232H35.9634H36.0951C36.2706 49.8793 36.4461 49.8354 36.5777 49.7038L36.7093 49.5722L45.5283 40.7532C45.9671 40.3144 46.6252 40.3144 47.064 40.7532C47.1517 40.8409 47.1956 40.9287 47.2834 41.0164C47.4589 41.3674 47.415 41.8062 47.1956 42.1572L47.064 42.2888L38.2011 51.1517L38.1133 51.2833C38.0256 51.415 37.9378 51.5905 37.9378 51.766V51.9415C37.9378 52.5119 38.3327 52.9506 38.8592 53.0384H39.0347C39.298 53.0384 39.5174 52.9506 39.7367 52.819L39.8684 52.6874L48.6874 43.8684C49.1261 43.4296 49.8282 43.4296 50.223 43.8684C50.3108 43.9561 50.3547 44.0439 50.4424 44.1316C50.6179 44.4826 50.574 44.9214 50.3547 45.2724L50.223 45.404L41.404 54.223L41.3601 54.2669L41.2724 54.3546C41.1846 54.4863 41.0969 54.6618 41.0969 54.8373V55.0128C41.0969 55.5832 41.4918 56.0219 42.0183 56.1097H42.1938H42.3693C42.5448 56.0658 42.7203 56.0219 42.8519 55.8903H42.8958L43.1152 55.6709L43.2029 55.5831L50.925 47.861L51.0128 47.7733L58.9543 39.8318C60.6216 38.1645 61.5868 35.9707 61.7185 33.6453V33.1188V31.7148C61.8062 26.4497 57.5503 22.1938 52.2852 22.1938C52.3291 22.1938 52.2852 22.1938 52.2852 22.1938ZM27.6709 22.1938C22.5814 22.1938 18.4132 26.1865 18.1499 31.276V31.7148V33.2943V33.3821V33.8647C18.2815 36.0146 19.1152 38.0768 20.5631 39.6563L20.9141 40.0512L39.9561 59.0932L40.7898 58.2596C39.7367 57.7769 38.9909 56.7239 38.9031 55.5393V55.4076H38.8154C37.192 55.276 35.8757 54.0036 35.7441 52.3802V52.2486H35.6563C34.0329 52.117 32.7166 50.8446 32.585 49.2212V49.0896H32.4973C30.8739 48.9579 29.5576 47.6855 29.426 46.0621V45.755C29.426 44.9652 29.6892 44.2194 30.1718 43.649L30.3912 43.3857L30.4351 43.3418L36.0951 37.6819C34.9982 37.1993 34.2962 36.1462 34.1645 34.9616V34.6545C34.1645 33.8647 34.4278 33.1188 34.9104 32.5484L35.1298 32.2852L35.1737 32.2413L38.4205 28.9506L34.3839 24.9141C32.7166 23.2468 30.5229 22.2815 28.1974 22.1499L27.6709 22.1938ZM52.2852 20C58.5594 20 63.7367 24.9579 64 31.2322V31.7148V33.2943C64 36.1901 62.9031 38.9982 60.9726 41.1481L60.5777 41.5868L53.5137 48.6508L53.426 48.7386L44.6069 57.5576L44.3876 57.7331L40.7459 61.3747C40.351 61.7696 39.7806 61.8135 39.3419 61.5064L39.2102 61.3747L19.4223 41.5868C17.3601 39.5247 16.1316 36.8044 16 33.9086V33.3382V31.7148C16 25.4406 20.958 20.2633 27.2322 20H27.7148C30.6106 20 33.4186 21.053 35.5686 23.0274L36.0073 23.4223L40.0439 27.4589L43.9927 23.5101L44.0366 23.4662C46.0987 21.404 48.819 20.1755 51.7587 20.0439L52.2852 20Z" fill="#184861"/>
</svg>
