<svg width="80" height="80" viewBox="0 0 80 80" fill="none" xmlns="http://www.w3.org/2000/svg">
<rect x="1" y="1" width="78" height="78" rx="39" fill="#F4FEC9"/>
<rect x="1" y="1" width="78" height="78" rx="39" stroke="#7DA907" stroke-width="2" stroke-linecap="round" stroke-dasharray="6 8"/>
<path d="M43.7612 29.7268C44.3254 29.7268 44.7955 30.1029 44.9365 30.667V30.855V33.0175C44.9365 33.5816 44.5604 34.0517 43.9963 34.1927H43.8082H37.9791C37.415 34.1927 36.9449 33.8166 36.8038 33.2525V33.0645V30.902C36.7568 30.2439 37.2269 29.6798 37.885 29.6328C38.5432 29.5858 39.1073 30.0559 39.1543 30.714V30.902V31.8892H42.586V30.902C42.586 30.3379 43.0091 29.8678 43.5732 29.7268H43.7612ZM47.381 16C56.4068 16 63.7403 23.3335 63.7403 32.3593C63.7403 35.885 62.9882 38.6116 61.1078 43.2185L59.6505 46.8383L59.4154 47.4964C58.6163 49.3768 58.1462 51.3982 58.0051 53.4666V54.0777V62.7275C58.0521 63.3856 57.5821 63.9498 56.9239 63.9968C56.2658 64.0438 55.7017 63.5737 55.6547 62.9155V62.7275V54.0777C55.7017 51.8213 56.1248 49.6118 56.9239 47.5434L57.488 46.0391L58.6163 43.2185C60.6377 38.3295 61.4368 35.697 61.4368 32.4063C61.4368 24.6968 55.1376 18.3975 47.428 18.3975C46.1587 18.3975 44.8895 18.5855 43.6672 18.9146C47.9451 21.8292 50.5776 26.6242 50.7657 31.8422V32.1243L54.9965 41.2911L55.0905 41.7612V43.2185C55.0905 43.7827 54.6675 44.2527 54.1033 44.3938H53.9153H50.7657V49.6588C50.7657 52.5734 48.5092 54.9709 45.6416 55.159H45.2655H42.1159V62.6335C42.1159 63.1976 41.7398 63.6677 41.1757 63.8087H40.8937C40.3295 63.8087 39.8594 63.3856 39.7184 62.8215V62.6335V53.9837C39.7184 53.4196 40.1415 52.9495 40.7056 52.8085H40.8937H45.2185C46.8639 52.8085 48.2272 51.5862 48.3682 49.9409V49.6588V43.1245C48.3682 42.5604 48.7443 42.0903 49.3084 41.9493H49.4964H52.646L48.4152 32.7824L48.3212 32.3123C48.3212 27.0943 45.4536 22.2993 40.8466 19.8548C36.4277 22.2523 33.5602 26.7652 33.3721 31.7952V32.3123L33.2781 32.7824L29.0472 41.9493H32.1969C32.761 41.9493 33.2311 42.3254 33.3721 42.8895V43.0775V49.6588C33.3721 51.3982 34.7824 52.8085 36.5218 52.8085C37.1799 52.8085 37.697 53.3256 37.697 53.9837C37.697 54.6419 37.1799 55.159 36.5218 55.159C33.6542 55.159 31.2567 52.9025 31.0687 50.0349V49.6588V44.3468H27.872C27.3079 44.3468 26.8378 43.9707 26.6968 43.4066V43.2185V41.7612L26.7908 41.2911L31.0216 32.1243V31.7952C31.2097 26.6242 33.7952 21.7822 38.0731 18.8676C30.6926 16.7522 22.983 21.124 20.9146 28.5986C20.5855 29.8208 20.3975 31.0901 20.3975 32.3593C20.3975 35.1329 20.9146 37.3894 22.2779 40.9151L22.842 42.3724L24.3933 46.1331L24.5813 46.6502C25.4745 48.7657 25.9916 51.0221 26.1327 53.3256V54.0307V62.6805C26.1797 63.3386 25.7096 63.9027 25.0514 63.9498C24.3933 63.9968 23.8292 63.5267 23.7822 62.8685V62.6805V54.0307C23.7352 52.0563 23.3591 50.0819 22.6069 48.2486L22.2779 47.3084L21.1496 44.4878L20.9616 44.0647C18.7992 38.8937 18 36.0731 18 32.3593C18 23.3335 25.3335 16 34.3593 16.047C36.6158 16.047 38.8252 16.5171 40.8937 17.4103C42.774 16.6111 44.7955 16.141 46.8169 16.094L47.381 16Z" fill="#203003"/>
</svg>
