<svg width="80" height="80" viewBox="0 0 80 80" fill="none" xmlns="http://www.w3.org/2000/svg">
<rect x="1" y="1" width="78" height="78" rx="39" fill="#D0F6FD"/>
<rect x="1" y="1" width="78" height="78" rx="39" stroke="#0D84AD" stroke-width="2" stroke-linecap="round" stroke-dasharray="4 12 12 16"/>
<g clip-path="url(#clip0_655_93)">
<path d="M39.5029 26.3356L39.6444 26.4772L42.5233 29.356L42.5705 29.4032L42.6177 29.4504L42.5233 29.356C42.5705 29.4032 42.6177 29.4504 42.6649 29.5448L42.7121 29.6392L42.7593 29.6864C42.7593 29.7336 42.8065 29.7808 42.8065 29.828C42.8065 29.8752 42.8065 29.8752 42.8537 29.9224C42.8537 29.9696 42.8537 30.0168 42.9009 30.0639C42.9009 30.1111 42.9009 30.2055 42.9009 30.2527C42.9009 30.3471 42.9009 30.4415 42.8537 30.5359V30.5831C42.8537 30.6303 42.8537 30.6303 42.8065 30.6775C42.8065 30.7247 42.8065 30.7247 42.7593 30.7719L42.7121 30.8191L42.6649 30.9134C42.6177 30.9606 42.6177 31.0078 42.5705 31.055L42.5233 31.1022L39.6444 33.9811C39.1725 34.453 38.4646 34.453 37.9926 33.9811C37.5679 33.5563 37.5207 32.9428 37.8511 32.4709L37.9926 32.3293L38.8421 31.4798H29.4504C28.7897 31.527 28.2234 31.055 28.1762 30.3943C28.129 29.7336 28.6009 29.1673 29.2617 29.1201H29.4504H38.8893L38.0398 28.2706C37.6151 27.893 37.5679 27.2323 37.8983 26.7603L38.0398 26.6188C38.3702 26.0524 39.0309 26.0052 39.5029 26.3356ZM28.129 30.7719C28.5065 31.1494 28.6009 31.8101 28.2706 32.2821L28.129 32.4237L27.2795 33.2732H36.6712C37.3319 33.226 37.8983 33.6979 37.9454 34.3586C37.9926 35.0194 37.5207 35.5857 36.86 35.6329H36.6712H27.2323L28.0818 36.4824C28.5065 36.8599 28.5537 37.5207 28.2234 37.9926L28.0818 38.1342C27.657 38.5589 27.0435 38.6061 26.5716 38.2758L26.43 38.1342L23.5511 35.3497L23.4567 35.2553L23.5511 35.3497C23.5039 35.3025 23.4567 35.2553 23.4095 35.2081C23.3623 35.1609 23.3623 35.1138 23.3151 35.0666V35.0194L23.268 34.925V34.8306C23.2208 34.7362 23.2208 34.5946 23.2208 34.453V34.4058C23.2208 34.3586 23.2208 34.3114 23.2208 34.2642V34.453C23.2208 34.3586 23.2208 34.3114 23.2208 34.2171C23.2208 34.1699 23.2208 34.1227 23.268 34.0755V34.0283C23.3151 33.9339 23.3623 33.8395 23.4095 33.7451C23.4567 33.6979 23.5039 33.6507 23.5511 33.5563L26.43 30.6775C26.9019 30.3471 27.657 30.3471 28.129 30.7719ZM42.6649 19.162C46.7236 22.1353 49.2249 26.8075 49.3665 31.8101V32.1405L52.9061 41.3434L53.0005 41.7682V42.5705C53.1893 42.2873 53.4724 42.0985 53.8028 42.0513H53.9916H55.6906V42.0041L52.151 32.754L52.0566 32.3293C52.0566 26.3828 48.281 21.097 42.6649 19.162ZM47.7147 19.162C51.7734 22.1353 54.2747 26.8075 54.4163 31.8101V32.1405L57.9559 41.3434L58.0503 41.7682V42.5705C58.2391 42.2873 58.5223 42.0985 58.8054 42.0513H58.9942H60.6932V42.0041L57.2008 32.754L57.1064 32.3293C57.1064 26.3828 53.3309 21.097 47.7147 19.162ZM52.9061 43.6088L52.8589 43.7031C52.6701 44.0335 52.387 44.2695 52.0094 44.3167H51.8206H49.4137V49.6024C49.4137 50.8295 48.989 52.0094 48.2339 53.0004C48.4226 52.8589 48.7058 52.7645 48.9418 52.7645C50.5464 52.7645 51.915 51.5374 52.0566 49.9328V49.6024V45.2606C52.0566 44.5998 52.5757 44.0807 53.2365 44.0807H53.3309C53.1421 44.0335 52.9533 43.8447 52.9061 43.6088ZM57.9559 43.6088L57.9087 43.7031C57.7199 44.0335 57.4368 44.2695 57.0592 44.3167H56.8704H53.9916H53.8972C54.1804 44.5054 54.3691 44.7886 54.4163 45.119V45.3078V49.6496C54.4163 50.8767 53.9916 52.0566 53.2365 53.0476C53.4252 52.9061 53.7084 52.8117 53.9444 52.8117C55.549 52.8117 56.9176 51.5846 57.0592 49.98V49.6496V45.3078C57.0592 44.647 57.5784 44.1279 58.2391 44.1279H58.3335C58.1447 44.0335 58.0031 43.8447 57.9559 43.6088ZM18.3597 32.3293C18.3597 35.4913 18.9261 37.9454 20.4835 42.3345L21.6633 45.5909L22.0409 46.6292C22.796 48.7529 23.268 50.9711 23.4095 53.1892V53.9443V62.5809C23.4567 63.2416 22.9848 63.808 22.3241 63.8552C21.6633 63.9024 21.097 63.4304 21.0498 62.7697V62.5809V53.9915C21.0026 52.0566 20.6723 50.0744 20.0587 48.2338L19.5868 46.7236L18.5957 44.0335C16.7079 38.8421 16 36.0576 16 32.3293C16 23.3151 23.3151 16 32.3293 16H43.1368C51.9622 16 59.1358 22.9848 59.4661 31.8101V32.1405L63.0057 41.3434L63.1001 41.7682V43.2312C63.1001 43.7975 62.6754 44.2695 62.109 44.4111H61.9203H59.0414H58.947C59.2302 44.5998 59.419 44.883 59.4661 45.2134L59.5133 45.4021V49.744C59.5133 52.7645 57.0592 55.2658 53.9916 55.2658C53.3309 55.2658 52.8117 54.7466 52.8117 54.0859C52.8117 53.8971 52.8589 53.7084 52.9533 53.5196C52.1982 54.3219 51.1599 54.8882 50.0744 55.1242C50.452 55.2658 50.7352 55.5961 50.8296 56.0209V56.2097V62.7225C50.8767 63.3832 50.4048 63.9496 49.7441 63.9968C49.0834 64.0439 48.517 63.572 48.4698 62.9113V62.7225V56.2097C48.4698 55.8321 48.6586 55.4546 48.989 55.2186H48.8946C48.2338 55.2186 47.7147 54.6994 47.7147 54.0387C47.7147 53.8499 47.7619 53.6612 47.8563 53.4724C47.1012 54.2747 46.1101 54.841 44.9774 55.077C45.355 55.2186 45.6382 55.5489 45.7325 55.9737V56.1625V62.6753C45.7797 63.336 45.3078 63.9024 44.6471 63.9496C43.9863 63.9968 43.42 63.5248 43.3728 62.8641V62.6753V56.1625C43.3728 55.7849 43.5616 55.4074 43.892 55.1714H40.6827V62.6281C40.6827 63.1945 40.3052 63.6664 39.7388 63.808H39.5501C38.9837 63.808 38.5118 63.4304 38.3702 62.8641V62.6753V55.1714H37.3791C36.7184 55.2186 36.1521 54.7466 36.1049 54.0859C36.0577 53.4252 36.5296 52.8589 37.1903 52.8117H37.3791H43.8448C45.4494 52.8117 46.818 51.5846 46.9596 49.98V49.6496V43.1368C46.9596 42.5705 47.3843 42.0985 47.9507 41.9569H48.1395H50.5464V41.9098L47.1012 32.754L47.0068 32.3293C47.0068 24.6366 40.7299 18.3597 33.0372 18.4069H32.3293C24.6366 18.3597 18.3597 24.6366 18.3597 32.3293Z" fill="#184861"/>
</g>
<defs>
<clipPath id="clip0_655_93">
<rect width="48" height="48" fill="white" transform="translate(16 16)"/>
</clipPath>
</defs>
</svg>
